<svg width="1613" height="1906" viewBox="0 0 1613 1906" fill="none" xmlns="http://www.w3.org/2000/svg">
<path d="M168.926 1548.12C98.443 1457.48 42.363 1349.82 16.228 1219.47C-15.032 1067.67 -0.752041 904.676 55.8 767.816C150.137 536.206 335.001 393.666 513.941 323.546C631.883 277.322 758.533 267.579 880.413 278.633C903.233 280.703 924.453 282.716 944.713 298.766C941.403 314.886 937.413 330.716 932.753 346.176C928.093 361.906 904.963 431.536 896.683 433.266C863.663 440.156 798.223 435.216 765.023 436.076C743.613 436.876 722.223 438.416 700.873 440.696C612.103 450.366 532.148 488.046 450.816 534.956C426.183 552.116 402.932 568.716 379.245 588.406C229.519 713.656 122.712 935.976 170.816 1186.3C173.756 1201.6 181.203 1247.17 193.354 1251.82C223.043 1238.57 382.416 979.986 420.178 934.516L421.713 932.686C431.993 941.046 441.056 949.946 449.643 961.456C468.38 986.556 519.637 1083.82 541.243 1088.34C544.034 1088.92 547.895 1088.95 550.55 1087.41C562.071 1080.73 727.543 830.156 758.703 788.626C769.723 773.926 781.263 761.236 793.553 748.746C820.523 774.946 848.333 818.286 871.653 851.786L981.313 1010.63C998.623 1035.68 1016.63 1066.53 1036.96 1086.6C1040.33 1089.92 1042.75 1092.98 1046.87 1090.34C1055.16 1085.02 1064.49 1066.86 1070.82 1057.41C1083.72 1038.15 1147.75 937.766 1160.29 936.346C1171.79 935.056 1348.49 1194.69 1369.56 1224.4C1375.14 1232.27 1383.24 1244.56 1391.61 1244.64C1402.21 1239.15 1406.44 1221.64 1409.64 1207.54C1431.56 1110.53 1432.67 1009.25 1407.12 913.366C1396.53 873.606 1374.83 823.366 1368.91 783.666C1385.7 769.846 1406.13 755.976 1423.76 743.116C1446.12 726.806 1470.32 707.576 1492.94 692.566C1544.47 749.256 1577.55 905.266 1585.84 994.846C1630.07 1472.4 1247.86 1769.04 963.413 1836.78C870.663 1858.16 776.243 1861.68 682.813 1847.26C653.883 1842.7 623.593 1836.77 595.263 1827.57C580.023 1822.77 564.87 1817.49 549.809 1811.73C453.607 1773.86 469.462 1777.01 373.02 1812.35L209.032 1870.16C191.194 1876.58 100.535 1913.34 91.662 1903.81C88.771 1881.28 159.482 1595.83 168.926 1548.12ZM937.593 1669.07C1009.74 1657.73 1072.27 1627.09 1138.18 1585.75C1206.15 1543.12 1330.72 1431.18 1356.61 1332.89C1351.04 1322.7 1335.23 1300.91 1328.38 1290.97C1307.82 1261.04 1287.02 1231.43 1265.99 1202.14C1231.97 1154.25 1198.6 1101.1 1161.84 1057.98C1145.64 1073.52 1101.38 1129.44 1095.41 1151.59C1083.52 1195.71 1189.52 1295.91 1200.63 1332.79C1200.31 1339.96 1201.36 1337.19 1197.77 1341.66C1169.18 1351.28 1102.84 1289.21 1080.93 1265.16C1036.84 1216.77 995.833 1157.14 956.983 1100.55L863.333 964.456C851.273 947.056 807.383 883.036 793.613 875.046C786.803 880.036 781.433 901.056 778.843 911.306C767.913 954.446 765.203 1008.77 773.273 1053.27C780.013 1089.56 798.223 1145.53 791.703 1183.29C781.693 1241.24 710.803 1294.97 677.183 1324.25C658.553 1340.17 640.213 1356.76 622.173 1373.97C598.443 1399.83 578.423 1423.7 562.739 1460.5C570.633 1455.14 577.817 1448.67 585.053 1441.76C603.603 1424.04 622.283 1408.32 641.993 1393.19C707.913 1355.34 788.893 1315.48 840.133 1245.31C854.693 1225.39 867.633 1191.92 880.613 1169.86C881.963 1167.55 881.373 1168.47 884.223 1168.22C888.003 1171.09 923.493 1231.48 931.443 1242.76C998.243 1337.64 1139.72 1447.75 1031.47 1591.2C1003.93 1627.7 969.943 1640.91 939.303 1667.57L937.593 1669.07ZM418.558 1058.85C401.198 1116.74 425.112 1161.91 407.705 1224.67C395.231 1269.64 365.985 1297.81 353.944 1328.3C361.142 1333.47 396.623 1302.47 403.982 1295.77C434.227 1266.31 448.508 1244.6 471.774 1206.84C508.063 1147.95 494.169 1154.98 459.416 1105.34C448.363 1089.55 435.488 1061.91 418.558 1058.85Z" fill="#4EAD1E"/>
<path d="M374.178 565.786C388.897 553.316 434.414 521.016 450.816 534.956C426.183 552.116 402.932 568.716 379.245 588.406C377.292 582.556 375.513 572.336 374.178 565.786Z" fill="#51AD4E"/>
<path d="M1193.78 282.984C1161.75 318.196 1147.79 381.566 1138.45 434.736C1134.08 459.626 1130.75 485.956 1121.98 508.776C1103.57 556.696 1070.23 596.956 1045.37 638.666C1031.27 662.326 1018.85 689.596 1003.32 711.326C1001.27 714.186 999.413 717.286 996.313 716.616C990.653 715.396 986.733 708.726 983.803 702.356C958.923 648.166 956.753 531.716 967.393 470.376C986.393 360.866 1048.51 271.849 1116.11 214.928C1155.02 182.167 1197.81 158.403 1240.6 137.462C1320.62 98.3032 1405.41 75.5942 1486.94 42.7042C1504.49 35.6202 1578.95 -0.791856 1589.78 0.0131445C1604.32 18.6851 1611.98 126.917 1612.53 156.809C1615.09 297.346 1587.7 448.206 1517.15 551.856C1431.2 678.116 1309.82 744.526 1187.81 764.866C1168.79 768.036 1144.38 774.426 1125.99 775.676C1104.05 782.736 1086.28 788.826 1067.14 805.486C1056 815.166 1039.65 848.056 1031 851.076L1029.15 847.916C1028.32 823.986 1047.19 774.466 1056.31 753.766C1128.18 574.626 1204.96 619.126 1325.29 563.066C1345.13 553.826 1368.32 540.916 1384.78 522.416C1365.35 526.846 1346.58 534.496 1326.52 537.676C1273.55 546.066 1207.31 551.916 1156.05 573.766C1174.17 534.876 1185.66 522.196 1208.47 492.576C1267.44 416.026 1323.3 405.406 1397.29 377.356C1411.15 372.106 1441.47 357.796 1452.7 344.676L1452.9 341.466C1441.32 336.176 1345.05 375.876 1329.89 360.816C1330.36 351.356 1347.19 333.146 1353.15 325.836C1388.35 283.299 1447.21 226.075 1472.34 176.724C1465.49 181.861 1457.78 188.866 1451.43 195.226C1413.52 233.176 1375.58 268.505 1335.93 302.866C1307.84 324.826 1280.52 348.646 1254.06 374.236C1238.02 389.976 1194.05 438.526 1178.13 441.566C1161.52 420.816 1188.4 313.156 1193.78 282.984Z" fill="#4EAD1E"/>
<path d="M1125.99 775.676C1104.05 782.736 1086.28 788.826 1067.14 805.486C1056 815.166 1039.65 848.056 1031 851.076L1029.15 847.916C1028.32 823.986 1047.19 774.466 1056.31 753.766C1060.5 775.816 1053.98 791.696 1046.66 811.226C1071.11 790.506 1095.81 767.566 1125.99 775.676Z" fill="#51AD4E"/>
<path d="M459.143 591.376C472.5 599.316 488.4 616.026 501.829 625.606C538.675 651.866 562.704 664.416 595.693 700.366C608.413 679.236 647.423 587.476 669.533 605.976C673.993 614.916 674.433 623.726 674.533 634.626C674.823 668.806 656.173 691.226 640.083 713.526C662.283 717.626 693.443 723.656 657.943 754.636C616.333 806.196 604.633 795.876 553.414 808.836C544.246 811.146 529.263 829.776 518.112 831.796C508.947 833.456 487.758 836.026 482.564 822.816C486.963 801.356 531.596 795.396 542.927 776.426C543.728 742.206 430.985 662.506 459.143 591.376Z" fill="#4EAD1E"/>
<path d="M1335.93 302.866C1375.58 268.505 1413.52 233.176 1451.43 195.226C1457.78 188.866 1465.49 181.861 1472.34 176.724C1447.21 226.075 1388.35 283.299 1353.15 325.836L1352.58 315.706C1349.2 311.956 1350.01 313.776 1348.25 308.796L1352.85 307.756L1352.79 306.056C1344.83 299.616 1346.96 301.376 1335.93 302.866Z" fill="#FEFEFE" fill-opacity="0.0588235"/>
</svg>
