<svg width="1440" height="646" viewBox="0 0 1440 646" fill="none" xmlns="http://www.w3.org/2000/svg">
<path d="M-3.11621 149.771C-2.75261 154.443 -2.48544 159.026 -2.51334 162.904L-0.592371 176.273C2.75514 185.614 2.69642 186.735 8.95949 194.689C5.17408 197.821 5.55882 202.64 5.98441 207.979C6.10601 209.5 6.23119 211.063 6.26393 212.641L4.80242 211.493C4.34695 211.141 3.91326 210.802 3.49894 210.479C1.27776 208.753 -0.411699 207.441 -1.98811 206.453C-2.03243 206.266 -2.08986 206.062 -2.15984 205.845C-2.13168 205.65 -2.11405 205.456 -2.10046 205.285C-2.09753 205.267 -2.09331 205.25 -2.09042 205.233C-1.95349 204.397 -1.9202 203.535 -1.98994 202.632L-2.02556 202.243C-2.01785 202.11 -2.01187 201.955 -2.01186 201.784C-2.01186 201.747 -2.01196 201.675 -2.01369 201.59C-2.01452 201.549 -2.01651 201.471 -2.02099 201.374C-2.02284 201.335 -2.03469 201.064 -2.07854 200.726C-2.07882 200.431 -2.07625 200.239 -2.07397 199.951C-2.06949 199.384 -2.09294 198.998 -2.11142 198.741C-2.11136 198.722 -2.11158 198.699 -2.11142 198.669C-2.11121 198.627 -2.11069 198.571 -2.11051 198.51C-2.11015 198.385 -2.11047 198.233 -2.11234 198.053C-2.11449 197.846 -2.11618 196.42 -2.12421 195.93C-2.13214 195.446 -2.15181 195.049 -2.18176 194.694C-2.19044 194.591 -2.1999 194.501 -2.20734 194.429C-2.22505 194.172 -2.24401 193.864 -2.25484 193.692C-2.25484 193.692 -2.25526 193.686 -2.25575 193.677C-2.25816 193.635 -2.25611 193.67 -2.2594 193.612C-2.2628 193.552 -2.26802 193.466 -2.27493 193.364C-2.28395 193.232 -2.29844 193.086 -2.3133 192.922C-2.31405 192.903 -2.3155 192.866 -2.31786 192.778C-2.31905 192.676 -2.32042 192.526 -2.32517 192.377C-2.33098 192.196 -2.34268 191.912 -2.37358 191.579L-2.41103 191.23L-2.43661 191.055C-2.34929 190.289 -2.37338 189.641 -2.39277 189.306C-2.3986 189.205 -2.40825 189.107 -2.4156 189.017C-2.40262 188.481 -2.42041 187.928 -2.45671 187.415C-2.45534 187.29 -2.45406 187.169 -2.45488 187.063C-2.45701 186.784 -2.46435 186.456 -2.47497 186.112C-2.48544 185.775 -2.50946 185.464 -2.51334 185.406C-2.51781 185.34 -2.52184 185.264 -2.52613 185.102C-2.53147 184.9 -2.54196 184.726 -2.54805 184.628C-2.55115 184.578 -2.55485 184.523 -2.55718 184.487C-2.55984 184.446 -2.56216 184.409 -2.56449 184.371C-2.57276 184.235 -2.58405 184.026 -2.59464 183.674C-2.60639 183.283 -2.63263 182.957 -2.65127 182.738C-2.6482 182.602 -2.64361 182.481 -2.64213 182.376C-2.6386 182.124 -2.639 182.089 -2.63757 182.031C-2.63357 181.87 -2.63072 181.722 -2.62843 181.597C-2.62594 181.46 -2.6238 181.375 -2.62204 181.289C-2.62139 181.257 -2.62154 181.233 -2.62113 181.216C-2.5801 180.611 -2.59358 179.995 -2.59372 179.968C-2.59661 179.42 -2.60273 179.233 -2.60286 178.907C-2.60303 178.467 -2.59371 178.447 -2.58185 178.076L-2.58093 178.058C-2.58018 178.043 -2.57928 178.021 -2.57819 177.997C-2.57331 177.886 -2.57019 177.769 -2.56815 177.634C-2.56385 177.352 -2.54758 176.361 -2.82391 175.184C-2.80643 175.065 -2.79202 174.957 -2.78189 174.861C-2.69278 174.018 -2.76162 173.289 -2.81021 172.924C-2.81026 172.917 -2.81016 172.909 -2.81021 172.902C-2.81102 172.778 -2.81176 172.627 -2.81386 172.448C-2.81701 172.18 -2.8192 171.767 -2.82117 171.294C-2.82305 170.844 -2.82529 170.342 -2.82939 169.964C-2.83775 169.193 -2.85893 168.4 -3.0066 167.568C-3.00748 167.515 -3.00834 167.432 -3.01117 167.339C-3.01053 167.36 -3.01125 167.348 -3.01117 167.297C-3.01109 167.25 -3.0107 167.19 -3.00934 167.121C-3.00848 167.078 -3.00676 167.036 -3.00568 166.998C-3.00315 166.976 -3.00018 166.953 -2.99746 166.928C-2.96294 166.617 -2.92244 166.185 -2.90429 165.651C-2.88864 165.19 -2.88769 164.67 -2.92165 164.133L-2.96823 163.593L-2.98285 163.46C-2.98689 163.426 -2.98769 163.421 -2.98924 163.408C-2.99023 163.396 -2.99521 163.334 -3.0002 163.212C-3.02339 162.646 -3.00432 162.684 -3.034 161.742C-3.04327 161.448 -3.05306 161.248 -3.06049 161.109C-3.06636 160.999 -3.06695 160.989 -3.0678 160.955C-3.07 160.867 -3.07132 160.741 -3.07419 160.503C-3.07541 160.402 -3.07738 160.282 -3.07967 160.165L-3.09246 159.737L-3.11164 159.422C-3.12143 159.292 -3.135 159.14 -3.15549 158.977C-3.15834 158.955 -3.16524 158.908 -3.17467 158.84C-3.06304 157.951 -3.11238 157.22 -3.13905 156.905C-3.15782 156.683 -3.18207 156.48 -3.20482 156.316C-3.20919 156.084 -3.21644 155.671 -3.24135 155.258C-3.25306 155.064 -3.26024 154.937 -3.26967 154.733C-3.27696 154.575 -3.27634 154.457 -3.27515 154.4C-3.27041 154.372 -3.25752 154.301 -3.24683 154.236C-3.22371 154.096 -3.18707 153.862 -3.1564 153.579C-3.14208 153.446 -3.13213 153.334 -3.12717 153.272C-3.1245 153.238 -3.12237 153.207 -3.12078 153.186C-3.11877 153.16 -3.11842 153.152 -3.11712 153.136C-3.06348 152.65 -3.06017 152.231 -3.06323 151.989C-3.06644 151.735 -3.07921 151.513 -3.08789 151.372C-3.09668 151.23 -3.10744 151.084 -3.11438 150.99C-3.12244 150.88 -3.12926 150.792 -3.13539 150.698C-3.13942 150.637 -3.13821 150.606 -3.13813 150.602C-3.13813 150.602 -3.13806 150.594 -3.13722 150.577C-3.13658 150.564 -3.13628 150.554 -3.13448 150.52C-3.13374 150.506 -3.1321 150.482 -3.13083 150.456C-3.12958 150.431 -3.12808 150.391 -3.12626 150.344C-3.11847 150.143 -3.1163 149.954 -3.11621 149.771Z" fill="url(#paint0_linear_562_3687)"/>
<path d="M85.189 16.9082C94.2657 30.8616 101.96 23.9129 103.318 31.2246L101.661 33.617C105.859 38.2297 123.151 38.1444 131.347 44.7341L129.545 46.8919L128.862 48.2925L123.291 48.7866C121.71 52.8145 125.908 59.558 130.016 66.1578C132.18 69.6324 134.317 73.0679 135.574 76.0462L137.073 75.4466L147.432 72.4665C149.89 78.1263 153.432 89.5694 159.078 92.3936C163.05 90.0835 166.466 88.6043 170.691 86.6312C179.296 82.7944 202.378 80.2037 213.116 78.8023C231.035 84.4664 243.485 90.3831 258.141 100.608C262.355 101.758 295.736 124.792 297.62 127.445C297.137 130.773 296.233 133.1 291.566 135.089C285.093 137.848 278.86 140.783 272.71 143.679C251.156 153.831 230.624 163.5 204.388 163.354C191.199 165.551 186.827 163.471 181.277 160.83C177.698 159.126 173.629 157.19 166.391 156.017C165.097 155.807 150.563 144.2 146.391 146.567C142.57 148.733 149.107 164.873 147.52 165.049C143.894 165.451 140.326 164.725 136.782 164.004C132.128 163.058 127.514 162.119 122.858 163.752C131.464 175.958 149.614 206.142 165.32 210.055C184.555 215.977 183.24 222.617 190.984 237.231C181.424 233.071 173.706 224.723 166.545 222.929L163.227 221.746C158.826 216.549 159.21 218.883 156.06 213.211C153.349 217.784 155.678 225.881 158.361 235.211C162.063 248.083 166.441 263.302 159.187 274.854L153.2 266.401C146.408 270.929 146.092 271.422 137.718 273.111C136.576 267.025 135.782 256.621 132.743 251.809L131.303 253.159L129.582 251.985C123.843 248.127 123.108 247.214 116.234 245.445L114.918 246.572C120.114 253.995 116.499 265.98 113.627 275.5C112.978 277.653 112.367 279.68 111.904 281.499C111.34 278.962 109.495 267.923 107.372 267.272C89.0669 261.659 93.9492 254.439 86.5318 242.028L84.1413 241.876C81.0435 245.936 79.7477 247.958 78.456 252.774C78.4139 252.784 73.7782 230.485 73.8998 224.223L68.5927 222.599L63.2609 221.218C51.6783 214.098 32.708 205.389 19.8112 199.067C17.7234 197.617 11.8105 195.73 8.95953 194.688C2.69643 186.734 2.75516 185.614 -0.592337 176.272L-2.51331 162.903C-2.48541 159.025 -2.75258 154.442 -3.11618 149.771C-3.11607 149.546 -3.12021 149.332 -3.13079 149.119C-3.13886 148.956 -3.14875 148.813 -3.15363 148.743C-3.15945 148.661 -3.16106 148.633 -3.16276 148.604C-3.1631 148.595 -3.164 148.581 -3.16459 148.563L-3.17098 148.309L-3.18925 147.811C-3.19697 147.672 -3.20511 147.567 -3.20844 147.518C-3.21459 147.427 -3.21627 147.388 -3.21757 147.352C-3.21938 147.067 -3.22278 146.354 -3.23584 145.967C-3.24069 145.823 -3.25028 145.582 -3.27603 145.307C-3.27944 145.271 -3.28469 145.225 -3.29064 145.17C-3.28907 144.933 -3.29229 144.751 -3.29521 144.646C-3.30258 144.38 -3.30358 144.355 -3.30161 144.273C-3.28866 143.73 -3.23329 143.11 -3.1856 142.084C-3.15805 141.491 -3.15585 140.904 -3.20569 140.304C-3.22291 140.097 -3.24609 139.918 -3.26598 139.77C-3.26616 139.759 -3.26577 139.747 -3.26598 139.734C-3.26678 139.686 -3.26709 139.618 -3.26872 139.547C-3.27037 139.475 -3.27368 139.382 -3.27786 139.279C-3.282 139.177 -3.2884 139.043 -3.29978 138.892C-3.30945 138.763 -3.32025 138.652 -3.32718 138.583C-3.33335 138.521 -3.34135 138.44 -3.34362 138.418C-3.35097 138.347 -3.35043 138.351 -3.34819 138.383C-3.34854 138.366 -3.34809 138.336 -3.34819 138.291C-3.34837 138.209 -3.34671 138.102 -3.34271 137.959C-3.34026 137.94 -3.33619 137.916 -3.33175 137.886C-3.3265 137.85 -3.32189 137.815 -3.31713 137.779C-3.28618 137.548 -3.21852 137.026 -3.19017 136.52C-3.14301 135.675 -3.23339 134.838 -3.44684 134.056C-3.43945 133.923 -3.43669 133.819 -3.43588 133.779C-3.43402 133.687 -3.4349 133.615 -3.43497 133.594C-3.43507 133.563 -3.4348 133.537 -3.43497 133.523C-3.43552 133.477 -3.43672 133.44 -3.4368 133.436C-3.43706 133.424 -3.43755 133.413 -3.43771 133.407C-3.43803 133.394 -3.43827 133.377 -3.43862 133.363C-3.43902 133.347 -3.43899 133.328 -3.43954 133.306C-3.44168 133.219 -3.44578 133.069 -3.4505 132.84C-3.454 132.67 -3.45673 132.406 -3.46055 132.076L-3.47425 131.142L-3.48521 130.806C-3.49971 130.464 -3.52638 130.104 -3.57838 129.72C-3.61107 129.479 -3.64644 129.284 -3.6679 129.168C-3.69935 128.998 -3.68551 129.075 -3.6953 129.02C-3.71866 128.889 -3.73313 128.778 -3.74097 128.706C-3.7455 128.539 -3.74734 128.434 -3.74919 128.294C-3.73885 128.168 -3.72825 128.017 -3.71814 127.84C-3.69853 127.725 -3.66944 127.559 -3.64232 127.377C-3.60901 127.152 -3.57153 126.864 -3.54275 126.538C-3.42491 125.199 -3.50079 124.027 -3.63045 123.197C-3.61781 123.081 -3.60773 122.965 -3.6003 122.848C-3.58231 122.564 -3.56995 122.328 -3.56102 122.075C-3.55918 122.023 -3.55817 121.97 -3.55737 121.918C-3.55473 121.744 -3.53398 120.874 -3.70443 119.894C-3.74639 119.652 -3.80019 119.418 -3.86246 119.191C-3.85158 118.861 -3.84237 118.483 -3.84419 118.077C-3.84514 117.865 -3.85056 117.687 -3.85515 117.546C-3.85726 117.482 -3.85912 117.417 -3.86063 117.374C-3.86234 117.327 -3.86326 117.292 -3.86429 117.258C-3.86518 117.229 -3.86447 117.196 -3.8652 117.155C-3.77226 116.585 -3.76202 116.172 -3.76015 116.129C-3.74558 115.803 -3.74857 115.508 -3.75285 115.309C-3.7573 115.102 -3.76525 114.894 -3.77568 114.698L-3.81039 114.159L-3.83871 113.841C-3.84711 113.758 -3.84833 113.755 -3.85333 113.705C-3.85891 113.648 -3.86322 113.592 -3.86794 113.519C-3.88588 113.239 -3.90616 112.796 -3.91453 112.561L-3.91727 112.491C-3.91723 112.482 -3.91644 112.47 -3.91635 112.452C-3.91613 112.406 -3.91637 112.337 -3.91635 112.25C-3.91628 111.928 -3.91987 111.247 -3.9602 110.539C-4.00009 109.838 -4.07804 109.146 -4.09173 109.009C-4.10862 108.839 -4.08841 109.027 -4.11183 108.78C-4.11271 108.771 -4.11492 108.759 -4.1164 108.745C-4.10085 108.563 -4.08815 108.394 -4.08625 108.365C-4.08035 108.277 -4.07703 108.233 -4.07346 108.194C-3.99538 107.333 -4.01103 106.661 -4.02962 106.27L-4.04149 106.061L-4.04332 105.954C-4.04488 105.846 -4.04582 105.684 -4.04241 105.485C-4.04053 105.377 -4.01989 104.663 -4.01774 103.905C-4.01759 103.85 -4.01671 103.832 -4.015 103.746C-4.01279 103.635 -4.01004 103.487 -4.0077 103.236C-4.00353 102.788 -3.99918 101.932 -4.0013 101.445C-4.00249 101.173 -4.0065 100.991 -4.01135 100.823C-4.01639 100.649 -4.01589 100.693 -4.01683 100.634C-4.02197 100.313 -4.02381 100.03 -4.02505 99.7912C-4.02564 99.6792 -4.02609 99.5545 -4.02688 99.4546C-4.0272 99.4136 -4.02934 99.3494 -4.03053 99.2745C-4.03074 99.2403 -4.03188 99.2051 -4.03236 99.1702C-4.03326 99.1316 -4.03283 99.0914 -4.03419 99.0518C-4.04709 98.4639 -4.09495 97.8064 -4.14471 97.2471C-4.14687 97.2175 -4.14829 97.1808 -4.15293 97.0836C-4.15691 97.0002 -4.16551 96.802 -4.17942 96.5918C-4.20511 96.2041 -4.26024 95.8287 -4.33836 95.4673C-4.33251 95.4113 -4.32705 95.3746 -4.32557 95.3595C-4.29158 95.0117 -4.28629 94.7227 -4.28447 94.594C-4.2808 94.3338 -4.28813 94.0549 -4.28995 93.9684C-4.2924 93.8521 -4.29662 93.7207 -4.29908 93.6496C-4.3023 93.5567 -4.30508 93.4674 -4.30822 93.3652C-4.31437 93.1649 -4.32045 92.9326 -4.32192 92.6768C-4.32411 92.2982 -4.34201 91.9415 -4.38221 91.5689C-4.39745 91.4276 -4.41479 91.2996 -4.41783 91.2762C-4.45887 90.9075 -4.50794 90.5223 -4.54845 90.224C-4.54833 90.1843 -4.54808 90.1376 -4.54754 90.0806C-4.54698 90.0212 -4.54572 89.9552 -4.5448 89.8791C-4.54325 89.7515 -4.54106 89.6664 -4.53841 89.6102L-4.53658 89.5794C-4.45477 88.8891 -4.44226 88.4675 -4.43062 88.0875C-4.41508 87.5801 -4.42026 87.0901 -4.44524 86.6419C-4.45755 86.4209 -4.47797 86.1623 -4.511 85.8883C-4.52002 85.8135 -4.5417 85.6333 -4.58499 85.3894C-4.57676 85.3333 -4.57057 85.2929 -4.56764 85.2709C-4.51144 84.8488 -4.50342 84.5066 -4.50187 84.4545C-4.4958 84.2504 -4.49862 84.0757 -4.49913 84.0398C-4.50011 83.9712 -4.5018 83.904 -4.50278 83.862C-4.50761 83.6548 -4.50993 83.5487 -4.50918 83.4532C-4.5058 83.0259 -4.4859 82.4066 -4.47447 81.7564C-4.46261 81.0819 -4.47515 80.6466 -4.47995 80.3333C-4.48245 80.1695 -4.4876 80.0146 -4.49182 79.9067C-4.49599 79.8001 -4.5018 79.6712 -4.50552 79.5832C-4.51408 79.381 -4.52063 79.2074 -4.52379 79.0334C-4.52598 78.9133 -4.52988 78.7971 -4.53567 78.6755C-4.54073 78.5691 -4.54658 78.4736 -4.54937 78.4291C-4.55469 78.3442 -4.56102 78.2447 -4.57129 78.0345C-4.58318 77.791 -4.59933 77.424 -4.61696 77.0297C-4.63399 76.649 -4.65222 76.2413 -4.66629 75.9525C-4.67235 75.8279 -4.69364 75.3548 -4.7485 74.9015C-4.74115 74.7625 -4.73572 74.6223 -4.73571 74.4809C-4.73572 74.5621 -4.73689 74.6095 -4.73571 74.5685C-4.73465 74.5317 -4.73339 74.4911 -4.73023 74.3944C-4.72592 74.2624 -4.72242 74.0892 -4.71744 73.8742C-4.70676 73.7862 -4.6898 73.6447 -4.67451 73.4772C-4.57225 72.3571 -4.64221 71.278 -4.67725 70.8952L-4.69278 70.7708C-4.69381 70.7482 -4.69579 70.7104 -4.69735 70.6736C-4.69875 70.6404 -4.69986 70.5932 -4.70191 70.5469C-4.70579 70.4594 -4.71243 70.3163 -4.72292 70.1606L-4.75855 69.7731C-4.76055 69.7073 -4.76181 69.6161 -4.76403 69.5112C-4.76596 69.4199 -4.76906 69.2858 -4.77225 69.1652C-4.7818 68.8036 -4.80784 68.4515 -4.81518 68.3429C-4.82508 68.1962 -4.83228 68.0829 -4.8371 67.9305C-4.84645 67.6354 -4.8642 67.3984 -4.87455 67.2705C-4.87479 67.2468 -4.87524 67.2174 -4.87547 67.1876C-4.87687 67.0061 -4.8773 66.7454 -4.87638 66.4244C-4.87618 66.3559 -4.87549 66.32 -4.87273 66.236C-4.86923 66.1297 -4.86236 65.9307 -4.85811 65.6614C-4.85436 65.4236 -4.85315 65.1103 -4.85263 64.8817C-4.85202 64.6111 -4.8519 64.4091 -4.84989 64.2773C-4.84695 64.0841 -4.84106 63.9674 -4.83254 63.8128C-4.8231 63.6418 -4.8028 63.3107 -4.79326 62.8969C-4.78827 62.6805 -4.79066 62.4996 -4.79417 62.3625C-4.79663 62.2665 -4.80212 62.1311 -4.8033 62.0959C-4.80725 61.9783 -4.81352 61.7763 -4.81792 61.3849C-4.81837 61.3448 -4.8182 61.2976 -4.81792 61.2285C-4.81774 61.1857 -4.81705 61.0483 -4.81701 60.9571C-4.81695 60.8491 -4.81742 60.6815 -4.8234 60.4926C-4.82935 60.3051 -4.84228 60.0339 -4.87638 59.7189C-4.87237 59.7559 -4.86998 59.7828 -4.86907 59.7935C-4.87077 59.7713 -4.8719 59.7514 -4.87729 59.6739C-4.88139 59.6149 -4.88901 59.5044 -4.89922 59.3847C-4.90247 59.3465 -4.90953 59.3 -4.91474 59.2461C-4.91509 59.2314 -4.91521 59.2138 -4.91566 59.194C-4.91784 59.0976 -4.92177 58.914 -4.93027 58.7176C-4.93872 58.5226 -4.95492 58.2309 -4.99147 57.8988C-5.01221 57.7105 -5.03483 57.5528 -5.04537 57.4805L-5.05267 57.4319C-5.08209 57.0309 -5.13357 56.6827 -5.17234 56.4591C-5.17897 56.39 -5.18985 56.3126 -5.19883 56.2304C-5.19929 56.2197 -5.19899 56.207 -5.19974 56.1901C-5.20138 56.1529 -5.20359 56.1046 -5.20613 56.0527C-5.21109 55.9515 -5.21857 55.808 -5.2308 55.6462C-5.23133 55.6366 -5.2318 55.6241 -5.23262 55.6083C-5.23581 55.5475 -5.23949 55.4679 -5.24358 55.3749C-5.25181 55.1882 -5.25954 54.9836 -5.26459 54.8346L-5.29108 54.4021L-5.29565 54.3475C-5.29697 54.3287 -5.29836 54.3075 -5.30022 54.28C-5.30578 54.0894 -5.31787 53.7391 -5.34589 53.3949C-5.35117 53.33 -5.35918 53.2659 -5.36599 53.2017C-5.37194 52.985 -5.38359 52.7711 -5.40618 52.5607C-5.32151 52.104 -5.27465 51.6279 -5.27464 51.1375C-5.27464 50.4424 -5.36687 49.7757 -5.53315 49.154C-5.44364 48.6852 -5.39522 48.1952 -5.39522 47.6906C-5.39522 47.491 -5.40445 47.2939 -5.41896 47.0993C-5.40397 46.9028 -5.39522 46.7037 -5.39522 46.5021C-5.39522 46.345 -5.40171 46.1892 -5.41074 46.0352C-5.34478 45.6296 -5.31027 45.209 -5.31027 44.778C-5.31029 44.0629 -5.40798 43.3779 -5.58338 42.7411C-5.57931 42.2492 -5.62229 41.7601 -5.70853 41.2836C-5.49023 40.5833 -5.3669 39.8198 -5.3669 39.018C-5.36691 38.1688 -5.50227 37.3607 -5.74506 36.6268C-5.65924 36.1101 -5.62332 35.5707 -5.64641 35.0176C-5.44947 34.3476 -5.33863 33.6221 -5.33858 32.8622C-5.33858 31.8371 -5.53608 30.8723 -5.88208 30.0255C-5.56695 29.2091 -5.38791 28.2883 -5.38791 27.3132C-5.38795 26.3639 -5.55909 25.4679 -5.85924 24.6684C-5.84619 24.5655 -5.83454 24.4615 -5.82545 24.3567C-5.78581 23.8998 -5.78832 23.4493 -5.82545 23.0106C-5.78392 22.6867 -5.76059 22.3544 -5.76059 22.0153C-5.7606 21.804 -5.76991 21.5954 -5.78617 21.3896C-5.65254 20.8265 -5.57973 20.2288 -5.57973 19.6087C-5.57973 19.1738 -5.61591 18.7498 -5.68295 18.3408C0.364956 23.7174 6.22114 29.0609 11.2559 33.1122C16.487 33.8663 38.8353 36.624 41.8361 38.5322C45.123 36.987 50.0959 34.033 53.3912 32.2081C61.2931 25.5398 69.858 24.4726 78.7027 17.7388L85.189 16.9082ZM-3.45415 133.064C-3.45078 133.112 -3.44873 133.15 -3.44776 133.167C-3.44571 133.203 -3.44449 133.23 -3.4441 133.238C-3.44819 133.154 -3.45613 133.066 -3.46237 132.975C-3.4581 133.027 -3.45449 133.059 -3.45415 133.064ZM-4.57129 90.0557C-4.57049 90.0623 -4.57021 90.0694 -4.56946 90.0758C-4.57999 90.0025 -4.58841 89.9357 -4.59778 89.878C-4.58769 89.9403 -4.57805 89.9996 -4.57129 90.0557ZM-4.7759 69.6072C-4.77235 69.6391 -4.76998 69.6674 -4.76768 69.6913L-4.79965 69.4152L-4.7759 69.6072Z" fill="#8D9767"/>
<path d="M-5.58064 29.0332C3.50948 37.7409 13.5472 47.6895 17.0344 52.687C22.8202 58.3976 28.4693 63.7711 33.6471 69.8627L34.7889 71.1827L59.9323 108.462C60.6547 118.544 83.7775 113.736 69.9893 119.136C75.8612 130.13 53.4473 151.549 58.1036 162.941C56.2202 164.966 47.1542 167.885 44.8459 169.622C32.9175 167.976 3.93663 130.026 2.8824 120.862C-0.960557 119.575 -2.6032 118.829 -3.84876 118.489C-3.84758 118.356 -3.84356 118.219 -3.84419 118.078C-3.84514 117.866 -3.85056 117.688 -3.85515 117.547C-3.85726 117.483 -3.85912 117.418 -3.86063 117.375C-3.86234 117.327 -3.86326 117.292 -3.86429 117.259C-3.86518 117.23 -3.86447 117.196 -3.8652 117.156C-3.77226 116.585 -3.76202 116.173 -3.76015 116.13C-3.74558 115.804 -3.74857 115.509 -3.75285 115.31C-3.7573 115.103 -3.76525 114.894 -3.77568 114.698L-3.81039 114.159L-3.83871 113.842C-3.84711 113.759 -3.84833 113.756 -3.85333 113.705C-3.85891 113.649 -3.86322 113.593 -3.86794 113.519C-3.88588 113.24 -3.90616 112.797 -3.91453 112.562L-3.91727 112.492C-3.91723 112.483 -3.91644 112.471 -3.91635 112.453C-3.91613 112.407 -3.91637 112.338 -3.91635 112.25C-3.91628 111.929 -3.91987 111.248 -3.9602 110.539C-4.00009 109.839 -4.07804 109.147 -4.09173 109.01C-4.10862 108.84 -4.08841 109.028 -4.11183 108.781C-4.11271 108.772 -4.11492 108.76 -4.1164 108.745C-4.10085 108.563 -4.08815 108.395 -4.08625 108.366C-4.08035 108.277 -4.07703 108.234 -4.07346 108.194C-3.99538 107.333 -4.01103 106.662 -4.02962 106.271L-4.04149 106.061L-4.04332 105.955C-4.04488 105.847 -4.04582 105.685 -4.04241 105.485C-4.04053 105.378 -4.01989 104.663 -4.01774 103.906C-4.01759 103.851 -4.01671 103.833 -4.015 103.747C-4.01279 103.636 -4.01004 103.488 -4.0077 103.236C-4.00353 102.788 -3.99918 101.932 -4.0013 101.446C-4.00249 101.174 -4.0065 100.992 -4.01135 100.824C-4.01639 100.65 -4.01589 100.693 -4.01683 100.634C-4.02197 100.313 -4.02381 100.03 -4.02505 99.7919C-4.02564 99.6799 -4.02609 99.5552 -4.02688 99.4553C-4.0272 99.4143 -4.02934 99.3501 -4.03053 99.2752C-4.03074 99.241 -4.03188 99.2058 -4.03236 99.171C-4.03326 99.1323 -4.03283 99.0921 -4.03419 99.0525C-4.04709 98.4646 -4.09495 97.8071 -4.14471 97.2478C-4.14687 97.2182 -4.14829 97.1815 -4.15293 97.0843C-4.15691 97.0009 -4.16551 96.8027 -4.17942 96.5925C-4.20511 96.2048 -4.26024 95.8294 -4.33836 95.468C-4.33251 95.412 -4.32705 95.3753 -4.32557 95.3602C-4.29158 95.0124 -4.28629 94.7234 -4.28447 94.5947C-4.2808 94.3345 -4.28813 94.0556 -4.28995 93.9691C-4.2924 93.8528 -4.29662 93.7214 -4.29908 93.6503C-4.3023 93.5574 -4.30508 93.4681 -4.30822 93.3659C-4.31437 93.1656 -4.32045 92.9333 -4.32192 92.6775C-4.32411 92.2989 -4.34201 91.9422 -4.38221 91.5696C-4.39745 91.4283 -4.41479 91.3003 -4.41783 91.2769C-4.45887 90.9082 -4.50794 90.523 -4.54845 90.2247C-4.54833 90.185 -4.54808 90.1383 -4.54754 90.0813C-4.54698 90.0219 -4.54572 89.9559 -4.5448 89.8798C-4.54325 89.7522 -4.54106 89.6671 -4.53841 89.6109L-4.53658 89.5801C-4.45477 88.8898 -4.44226 88.4682 -4.43062 88.0882C-4.41508 87.5808 -4.42026 87.0908 -4.44524 86.6426C-4.45755 86.4216 -4.47797 86.163 -4.511 85.889C-4.52002 85.8142 -4.5417 85.634 -4.58499 85.3901C-4.57676 85.334 -4.57057 85.2936 -4.56764 85.2716C-4.51144 84.8495 -4.50342 84.5073 -4.50187 84.4552C-4.4958 84.2511 -4.49862 84.0764 -4.49913 84.0405C-4.50011 83.9719 -4.5018 83.9047 -4.50278 83.8627C-4.50761 83.6555 -4.50993 83.5494 -4.50918 83.4539C-4.5058 83.0266 -4.4859 82.4073 -4.47447 81.7571C-4.46261 81.0826 -4.47515 80.6473 -4.47995 80.334C-4.48245 80.1702 -4.4876 80.0153 -4.49182 79.9074C-4.49599 79.8008 -4.5018 79.6719 -4.50552 79.5839C-4.51408 79.3817 -4.52063 79.2081 -4.52379 79.0341C-4.52598 78.914 -4.52988 78.7978 -4.53567 78.6762C-4.54073 78.5698 -4.54658 78.4743 -4.54937 78.4298C-4.55469 78.3449 -4.56102 78.2454 -4.57129 78.0352C-4.58318 77.7917 -4.59933 77.4247 -4.61696 77.0304C-4.63399 76.6497 -4.65222 76.242 -4.66629 75.9532C-4.67235 75.8286 -4.69364 75.3555 -4.7485 74.9022C-4.74115 74.7632 -4.73572 74.623 -4.73571 74.4816C-4.73572 74.5628 -4.73689 74.6102 -4.73571 74.5692C-4.73465 74.5324 -4.73339 74.4918 -4.73023 74.3951C-4.72592 74.2631 -4.72242 74.0899 -4.71744 73.8749C-4.70676 73.7869 -4.6898 73.6454 -4.67451 73.4779C-4.57225 72.3578 -4.64221 71.2787 -4.67725 70.8959L-4.69278 70.7715C-4.69381 70.7489 -4.69579 70.7111 -4.69735 70.6743C-4.69875 70.6411 -4.69986 70.5939 -4.70191 70.5476C-4.70579 70.4601 -4.71243 70.317 -4.72292 70.1613L-4.75855 69.7738C-4.76055 69.708 -4.76181 69.6168 -4.76403 69.5119C-4.76596 69.4206 -4.76906 69.2865 -4.77225 69.1659C-4.7818 68.8043 -4.80784 68.4522 -4.81518 68.3436C-4.82508 68.1969 -4.83228 68.0836 -4.8371 67.9312C-4.84645 67.6361 -4.8642 67.3991 -4.87455 67.2712C-4.87479 67.2475 -4.87524 67.2181 -4.87547 67.1883C-4.87687 67.0068 -4.8773 66.7461 -4.87638 66.4252C-4.87618 66.3566 -4.87549 66.3207 -4.87273 66.2367C-4.86923 66.1304 -4.86236 65.9314 -4.85811 65.6621C-4.85436 65.4243 -4.85315 65.111 -4.85263 64.8824C-4.85202 64.6118 -4.8519 64.4098 -4.84989 64.278C-4.84695 64.0848 -4.84106 63.9681 -4.83254 63.8135C-4.8231 63.6425 -4.8028 63.3115 -4.79326 62.8976C-4.78827 62.6812 -4.79066 62.5003 -4.79417 62.3632C-4.79663 62.2672 -4.80212 62.1318 -4.8033 62.0966C-4.80725 61.979 -4.81352 61.777 -4.81792 61.3856C-4.81837 61.3455 -4.8182 61.2983 -4.81792 61.2292C-4.81774 61.1864 -4.81705 61.049 -4.81701 60.9578C-4.81695 60.8498 -4.81742 60.6822 -4.8234 60.4933C-4.82935 60.3058 -4.84228 60.0346 -4.87638 59.7196C-4.87237 59.7566 -4.86998 59.7835 -4.86907 59.7942C-4.87077 59.772 -4.8719 59.7521 -4.87729 59.6746C-4.88139 59.6156 -4.88901 59.5051 -4.89922 59.3854C-4.90247 59.3472 -4.90953 59.3007 -4.91474 59.2468C-4.91509 59.2321 -4.91521 59.2145 -4.91566 59.1947C-4.91784 59.0983 -4.92177 58.9147 -4.93027 58.7183C-4.93872 58.5233 -4.95492 58.2316 -4.99147 57.8995C-5.01221 57.7112 -5.03483 57.5535 -5.04537 57.4812L-5.05267 57.4326C-5.08209 57.0316 -5.13357 56.6834 -5.17234 56.4598C-5.17897 56.3907 -5.18985 56.3133 -5.19883 56.2311C-5.19929 56.2204 -5.19899 56.2077 -5.19974 56.1908C-5.20138 56.1536 -5.20359 56.1053 -5.20613 56.0534C-5.21109 55.9522 -5.21857 55.8087 -5.2308 55.6469C-5.23133 55.6373 -5.2318 55.6248 -5.23262 55.609C-5.23581 55.5482 -5.23949 55.4686 -5.24358 55.3756C-5.25181 55.1889 -5.25954 54.9843 -5.26459 54.8353L-5.29108 54.4028L-5.29565 54.3482C-5.29697 54.3294 -5.29836 54.3082 -5.30022 54.2807C-5.30578 54.0901 -5.31787 53.7398 -5.34589 53.3956C-5.35117 53.3307 -5.35918 53.2666 -5.36599 53.2024C-5.37194 52.9857 -5.38359 52.7718 -5.40618 52.5614C-5.32151 52.1047 -5.27465 51.6286 -5.27464 51.1382C-5.27464 50.4431 -5.36687 49.7764 -5.53315 49.1547C-5.44364 48.6859 -5.39522 48.1959 -5.39522 47.6913C-5.39522 47.4917 -5.40445 47.2946 -5.41896 47.1C-5.40397 46.9035 -5.39522 46.7044 -5.39522 46.5028C-5.39522 46.3457 -5.40171 46.1899 -5.41074 46.0359C-5.34478 45.6303 -5.31027 45.2097 -5.31027 44.7787C-5.31029 44.0636 -5.40798 43.3786 -5.58338 42.7418C-5.57931 42.2499 -5.62229 41.7608 -5.70853 41.2843C-5.49023 40.584 -5.3669 39.8205 -5.3669 39.0187C-5.36691 38.1695 -5.50227 37.3614 -5.74506 36.6275C-5.65924 36.1108 -5.62332 35.5714 -5.64641 35.0183C-5.44947 34.3483 -5.33863 33.6228 -5.33858 32.8629C-5.33858 31.8374 -5.53584 30.8721 -5.88208 30.025C-5.76015 29.709 -5.65899 29.3777 -5.58064 29.0332ZM-4.57129 90.0564C-4.57045 90.0634 -4.57025 90.0709 -4.56946 90.0777C-4.58005 90.0039 -4.58837 89.9367 -4.59778 89.8787C-4.58769 89.941 -4.57805 90.0003 -4.57129 90.0564ZM-4.7759 69.6079C-4.77235 69.6398 -4.76998 69.6681 -4.76768 69.692L-4.79965 69.4159L-4.7759 69.6079Z" fill="white"/>
<path d="M-5.63959 29.2734C3.63093 37.9483 13.8337 47.8295 17.3874 52.8028C23.3064 58.5078 29.0859 63.8751 34.3829 69.9607L35.5503 71.2807L35.5539 71.3092C36.2928 81.3808 37.9964 104.611 23.8911 110.006C15.8003 96.6379 6.73291 82.8311 -2.46721 69.9121C-3.26016 68.7987 -4.06499 67.7156 -4.87687 66.6559C-4.87684 66.583 -4.8771 66.5057 -4.87687 66.4248C-4.87667 66.3563 -4.87598 66.3204 -4.87321 66.2364C-4.86972 66.1301 -4.86194 65.9311 -4.85769 65.6617C-4.85394 65.424 -4.85363 65.1107 -4.85312 64.8821C-4.85251 64.6115 -4.85147 64.4095 -4.84947 64.2777C-4.84652 64.0845 -4.84155 63.9678 -4.83302 63.8132C-4.82359 63.6422 -4.80238 63.3112 -4.79283 62.8973C-4.78784 62.6809 -4.79115 62.5 -4.79466 62.3629C-4.79712 62.2669 -4.8017 62.1315 -4.80288 62.0963C-4.80682 61.9787 -4.8131 61.7767 -4.81749 61.3853C-4.81794 61.3452 -4.81778 61.298 -4.81749 61.2289C-4.81732 61.1861 -4.81663 61.0487 -4.81658 60.9575C-4.81653 60.8494 -4.81699 60.6819 -4.82298 60.493C-4.82893 60.3055 -4.84186 60.0343 -4.87596 59.7193L-4.86865 59.7939C-4.87035 59.7717 -4.87147 59.7519 -4.87687 59.6742C-4.88097 59.6153 -4.88949 59.5049 -4.8997 59.3851C-4.90279 59.3489 -4.90948 59.3052 -4.91432 59.2548C-4.91471 59.2383 -4.9147 59.218 -4.91523 59.1943C-4.91742 59.098 -4.92134 58.9144 -4.92985 58.718C-4.93407 58.6205 -4.9403 58.4989 -4.94994 58.3601L-4.99105 57.8992L-5.04494 57.4809C-5.04748 57.4635 -5.05128 57.4474 -5.05316 57.4347C-5.08264 57.0249 -5.13445 56.6807 -5.17374 56.4548C-5.18011 56.3885 -5.1899 56.3149 -5.1984 56.2367C-5.19892 56.2247 -5.19934 56.2106 -5.20023 56.1905C-5.20187 56.1533 -5.20317 56.105 -5.20571 56.0531C-5.21067 55.9519 -5.21906 55.8084 -5.23128 55.6466C-5.22832 55.6858 -5.22921 55.6831 -5.23311 55.6087C-5.2363 55.5479 -5.23997 55.4683 -5.24407 55.3753C-5.2523 55.1886 -5.26003 54.984 -5.26508 54.835L-5.29157 54.4024L-5.29523 54.3479C-5.29647 54.3301 -5.29809 54.3103 -5.29979 54.2851C-5.30527 54.0957 -5.31812 53.7424 -5.34638 53.3952C-5.35166 53.3304 -5.35967 53.2663 -5.36647 53.2021C-5.37246 52.9858 -5.38415 52.7723 -5.40667 52.5622C-5.32185 52.1052 -5.27422 51.6287 -5.27422 51.1379C-5.27422 50.4418 -5.3668 49.7743 -5.53363 49.152C-5.44438 48.6839 -5.3957 48.1948 -5.3957 47.691C-5.3957 47.4894 -5.40374 47.2902 -5.41854 47.0937C-5.40397 46.8992 -5.39571 46.702 -5.3957 46.5025C-5.3957 46.3438 -5.40202 46.1864 -5.41123 46.0309C-5.34559 45.6266 -5.30984 45.2079 -5.30984 44.7784C-5.30986 44.0631 -5.40828 43.3783 -5.58387 42.7415C-5.5798 42.2497 -5.62188 41.7604 -5.7081 41.284C-5.49018 40.5836 -5.36739 39.82 -5.36739 39.0184C-5.3674 38.1691 -5.50276 37.361 -5.74555 36.6272C-5.65983 36.1112 -5.624 35.5727 -5.6469 35.0204C-5.44928 34.3497 -5.33821 33.6233 -5.33816 32.8626C-5.33816 31.8373 -5.53627 30.8727 -5.88257 30.0259C-5.78909 29.7837 -5.7078 29.5327 -5.63959 29.2734Z" fill="white"/>
<path d="M34.3825 69.9612C29.0856 63.8756 23.3069 58.5078 17.3879 52.8027C17.3187 53.7696 17.2326 54.7046 17.1475 55.6168C16.7444 59.9622 16.388 63.7933 18.24 68.1186C22.6484 70.266 24.4106 70.0971 26.9595 69.8527C28.7011 69.6859 30.8104 69.4837 34.3825 69.9612Z" fill="white"/>
<path d="M-3.84927 118.575C-2.58917 118.93 -0.892337 119.666 2.9102 120.911C3.98867 130.065 21.4128 142.632 33.6156 144.277C35.9762 142.542 36.4588 142.344 38.3856 140.321C40.1562 145.696 43.0665 155.813 45.5424 160.574C51.2808 181.372 62.3158 196.787 73.9395 215.954L73.5869 220.051V223.617L77.174 237.57C65.5914 230.451 32.7087 205.391 19.8116 199.068C17.7238 197.619 11.81 195.731 8.95901 194.69C2.69591 186.735 2.7548 185.614 -0.592851 176.272L-2.51291 162.904C-2.48502 159.024 -2.75279 154.438 -3.11669 149.764C-3.11671 149.542 -3.11992 149.331 -3.13039 149.119C-3.13846 148.957 -3.14926 148.813 -3.15414 148.744C-3.15996 148.661 -3.16157 148.634 -3.16328 148.604C-3.16362 148.595 -3.1636 148.582 -3.16419 148.564L-3.17058 148.309L-3.18977 147.811C-3.19749 147.672 -3.20563 147.567 -3.20895 147.519C-3.21431 147.439 -3.21578 147.4 -3.21717 147.367C-3.21794 147.248 -3.21879 147.043 -3.22082 146.817L-3.23544 145.967L-3.24823 145.687C-3.25452 145.574 -3.26367 145.445 -3.27654 145.307C-3.27981 145.273 -3.28562 145.229 -3.29116 145.177C-3.28942 144.937 -3.29277 144.753 -3.29573 144.646C-3.3031 144.381 -3.30409 144.355 -3.30212 144.273C-3.28917 143.731 -3.23289 143.111 -3.1852 142.084C-3.15765 141.491 -3.15637 140.904 -3.20621 140.305C-3.22351 140.097 -3.24561 139.916 -3.26558 139.768C-3.26575 139.758 -3.26539 139.746 -3.26558 139.735C-3.26638 139.687 -3.26761 139.619 -3.26924 139.547C-3.27088 139.475 -3.27328 139.383 -3.27746 139.28L-3.29938 138.892L-3.32678 138.583C-3.33295 138.521 -3.34187 138.44 -3.34414 138.418C-3.35245 138.338 -3.34982 138.354 -3.34688 138.398C-3.34573 138.415 -3.34849 138.386 -3.34871 138.291C-3.34888 138.21 -3.34621 138.105 -3.34231 137.964C-3.33982 137.945 -3.33707 137.919 -3.33226 137.886C-3.32701 137.851 -3.3215 137.815 -3.31674 137.78C-3.28578 137.548 -3.21903 137.027 -3.19068 136.52C-3.14352 135.676 -3.2341 134.838 -3.44736 134.056C-3.43996 133.923 -3.43721 133.819 -3.4364 133.779C-3.43454 133.687 -3.4345 133.615 -3.43457 133.594C-3.43467 133.563 -3.43532 133.537 -3.43548 133.523C-3.43603 133.478 -3.43632 133.44 -3.4364 133.437C-3.43667 133.425 -3.43715 133.414 -3.43731 133.407C-3.43763 133.394 -3.43787 133.377 -3.43822 133.363C-3.43862 133.347 -3.43951 133.328 -3.44005 133.306C-3.4422 133.219 -3.44539 133.07 -3.4501 132.841C-3.4536 132.671 -3.45725 132.406 -3.46106 132.076L-3.47476 131.143L-3.48481 130.806C-3.49932 130.464 -3.52688 130.105 -3.57889 129.721C-3.61159 129.479 -3.64696 129.284 -3.66841 129.169C-3.69986 128.999 -3.686 129.076 -3.69581 129.02C-3.71931 128.889 -3.73367 128.777 -3.74149 128.705C-3.74595 128.541 -3.74783 128.436 -3.74971 128.299C-3.7394 128.174 -3.72969 128.023 -3.71956 127.847C-3.69991 127.733 -3.67052 127.564 -3.64283 127.377C-3.60952 127.152 -3.57113 126.865 -3.54236 126.538C-3.42436 125.198 -3.50007 124.024 -3.63005 123.194C-3.61759 123.079 -3.60726 122.964 -3.5999 122.848C-3.58191 122.565 -3.56955 122.328 -3.56062 122.076C-3.55878 122.023 -3.55777 121.97 -3.55697 121.918C-3.55433 121.744 -3.53447 120.875 -3.70495 119.894C-3.747 119.652 -3.79952 119.417 -3.86206 119.189C-3.85581 118.999 -3.85182 118.793 -3.84927 118.575ZM-3.45467 133.065C-3.45129 133.112 -3.44833 133.151 -3.44736 133.168C-3.44531 133.203 -3.44409 133.231 -3.4437 133.239C-3.44738 133.162 -3.45475 133.084 -3.46015 133.003C-3.45734 133.038 -3.45495 133.06 -3.45467 133.065Z" fill="white"/>
<path d="M55.1923 209.663C30.8226 207.214 15.0414 184.825 -0.461914 178.115C3.71798 191.98 5.50458 194.25 13.2437 206.015C16.7445 207.531 24.0034 210.269 26.5728 212.402C42.423 221.658 65.7322 234.392 79.9795 244.851C75.9327 232.636 63.8744 219.647 55.1923 209.663Z" fill="#B5B787"/>
<path d="M-2.33252 162.341C6.97278 165.526 9.35861 169.024 11.3463 171.941C13.8897 175.672 15.7824 178.45 30.6875 178.392C37.8701 187.254 49.5664 200.785 55.6601 209.663C30.4185 207.211 16.1329 186.76 0.105458 180.499L-2.33252 162.341Z" fill="#929D6D"/>
<path d="M-3.25426 134.994C4.8513 149.471 22.197 164.494 30.4052 179.327C15.9055 179.375 14.0643 177.093 11.5901 174.026C9.65656 171.629 7.33572 168.755 -1.71602 166.138C-1.6632 159.5 -2.46464 151.01 -3.24603 143.156C-3.22736 142.851 -3.20511 142.502 -3.18575 142.085C-3.1582 141.492 -3.156 140.905 -3.20584 140.305C-3.22305 140.098 -3.24624 139.919 -3.26613 139.771C-3.26631 139.76 -3.26592 139.748 -3.26613 139.735C-3.26693 139.687 -3.26724 139.619 -3.26887 139.548C-3.27052 139.476 -3.27382 139.383 -3.278 139.28C-3.28215 139.178 -3.28855 139.044 -3.29993 138.893C-3.3096 138.764 -3.3204 138.653 -3.32733 138.583C-3.3335 138.521 -3.3415 138.441 -3.34377 138.419C-3.35209 138.338 -3.35037 138.355 -3.34743 138.398C-3.34627 138.416 -3.34812 138.386 -3.34834 138.292C-3.34852 138.21 -3.34686 138.103 -3.34286 137.96C-3.34041 137.941 -3.33634 137.917 -3.3319 137.887C-3.32665 137.851 -3.32204 137.816 -3.31728 137.78C-3.28633 137.548 -3.21867 137.027 -3.19031 136.52C-3.16155 136.006 -3.18416 135.493 -3.25426 134.994Z" fill="#8D9767"/>
<path d="M297.62 127.446C295.739 124.795 262.355 101.759 258.141 100.608C266.413 109.213 293.21 126.072 294.624 130.251C284.595 133.798 262.603 130.455 240.069 127.03C214.488 123.142 188.207 119.147 177.934 125.005C178.344 128.789 179.22 128.882 182.348 131.977C171.122 140.748 177.125 143.94 168.338 151.264C182.356 161.692 187.391 159.053 204.388 163.354C230.624 163.5 251.156 153.831 272.71 143.68C278.86 140.783 285.093 137.848 291.565 135.09C296.233 133.101 297.137 130.775 297.62 127.446Z" fill="#929D6D"/>
<path d="M85.1887 16.9082L78.7029 17.7389C69.8581 24.4727 61.293 25.5395 53.391 32.2081C50.0957 34.033 45.1233 36.9871 41.8364 38.5323L44.2197 43.4633C60.3436 55.1225 69.7159 62.6016 88.3512 71.8955C100.063 75.113 103.256 75.4641 115.145 72.8326C119.879 74.1373 118.505 73.979 121.878 76.7858C127.163 78.2688 129.004 77.7805 133.476 76.5937C134.116 76.424 134.81 76.2399 135.575 76.0453C134.318 73.0669 132.18 69.6319 130.016 66.1572C125.908 59.5574 121.71 52.8144 123.292 48.7866L128.862 48.2927L129.545 46.8914L131.347 44.7338C123.151 38.144 105.859 38.2297 101.661 33.617L103.318 31.2246C101.96 23.9125 94.2655 30.8618 85.1887 16.9082Z" fill="#929D6D"/>
<path d="M51.1695 39.8263C52.0216 39.2415 53.5023 38.2247 53.391 32.209C50.0957 34.0339 45.1233 36.988 41.8364 38.5332L44.2197 43.4642C60.3436 55.1235 69.7159 62.6026 88.3512 71.8964C94.9259 70.2908 102.594 69.126 107.058 65.3358C107.465 61.946 106.496 59.8396 105.183 56.9829C104.937 56.4477 104.679 55.8862 104.415 55.2851C103.605 54.7699 99.5419 52.2412 99.2014 51.7615C92.2975 42.0579 82.0075 42.8814 71.3444 43.7348C64.6191 44.2731 57.7451 44.8232 51.4791 42.7512C50.2089 40.4861 50.4876 40.2951 51.1695 39.8263Z" fill="url(#paint1_linear_562_3687)"/>
<path d="M106.548 53.7629L104.415 55.284C104.679 55.8851 104.937 56.4466 105.183 56.9818C106.496 59.8385 107.465 61.9449 107.059 65.3347C102.594 69.1249 94.926 70.2897 88.3513 71.8953C100.063 75.1128 103.256 75.4639 115.145 72.8324C119.879 74.1371 118.505 73.9788 121.879 76.7856C127.163 78.2686 129.004 77.7803 133.476 76.5935C134.116 76.4238 134.81 76.2397 135.575 76.0451C134.318 73.0667 132.18 69.6317 130.016 66.157C125.908 59.5572 121.71 52.8142 123.292 48.7864L128.862 48.2925L129.545 46.8912C127.974 46.5978 126.626 46.302 125.407 46.0351C121.155 45.1032 118.499 44.5213 113.627 45.6077L113.163 47.8837L116.045 50.6951C112.855 50.0049 109.756 49.3419 106.588 48.5903C106.264 50.3059 106.105 50.7346 106.102 51.1651C106.099 51.5966 106.251 52.03 106.548 53.7629Z" fill="#929D6D"/>
<path d="M67.9723 116.05C46.7404 124.838 50.0095 145.487 56.1839 160.282C76.5654 158.395 77.5457 151.505 78.9132 141.895C79.2359 139.629 79.5792 137.213 80.204 134.675L80.9121 131.896C79.1536 126.027 77.7795 123.053 75.0838 117.362L72.2067 117.889L67.9723 116.05Z" fill="white"/>
<path d="M213.116 78.8027C202.378 80.2041 179.297 82.7949 170.691 86.6317L178.046 87.6955C181.897 92.6766 186.629 101.886 192.407 104.502L195.705 104.618C199.562 104.769 200.659 104.91 204.506 105.676C203.887 110.008 202.812 110.125 199.392 114.034L199.695 116.087C202.933 116.226 205.487 115.446 208.451 114.541C209.279 114.288 210.139 114.025 211.055 113.77C209.851 114.753 208.659 115.745 207.476 116.745C212.399 119.079 286.774 130.13 294.624 130.251C293.21 126.072 266.414 109.213 258.141 100.608C243.485 90.3837 231.035 84.4669 213.116 78.8027Z" fill="#929D6D"/>
<path d="M146.113 211.15C148.654 195.68 94.7707 134.728 82.3855 121.723C92.6708 146.368 93.1441 160.064 107.301 187.533C113.302 196.584 118.196 206.063 121.915 215.842C124.263 225.26 131.592 244.041 132.743 251.81C135.783 256.621 136.577 267.026 137.719 273.112C146.092 271.423 146.407 270.93 153.2 266.401C147.122 251.706 144.152 245.244 143.368 238.365C142.64 231.97 143.802 225.215 146.113 211.15Z" fill="white"/>
<path d="M44.6149 43.1796C34.5367 41.7076 23.5368 40.254 13.5686 38.5762C32.6072 59.221 60.5381 86.5709 81.5444 106.99C83.7199 109.104 89.3591 109.713 92.8257 110.165L96.1143 108.816C98.8765 104.445 103.058 100.964 107.099 97.6012C115.165 90.887 129.422 89.336 123.942 77.4043C111.777 80.0502 101.755 75.003 89.7716 71.7678C70.7034 62.423 61.1133 54.9029 44.6149 43.1796Z" fill="white"/>
<path d="M147.432 72.4658L137.072 75.4468L135.575 76.0456C134.81 76.2402 134.116 76.4242 133.476 76.594C129.004 77.7808 127.163 78.2691 121.878 76.7861C118.505 73.9793 119.879 74.1375 115.145 72.8329C120.501 84.6995 113.168 90.9106 105.285 97.5881C101.336 100.933 97.2493 104.394 94.5499 108.742L91.3359 110.084C94.0298 110.76 96.5441 111.468 98.9255 112.138C111.557 115.692 120.441 118.192 132.484 109.425C134.725 104.463 146.968 97.7731 152.63 94.5453L156.094 93.5019L159.079 92.3934C153.432 89.5694 149.89 78.1256 147.432 72.4658Z" fill="white"/>
<path d="M147.432 72.4658L137.073 75.4468C141.544 81.5963 147.378 92.234 156.094 93.5019L159.079 92.3934C153.432 89.5694 149.89 78.1256 147.432 72.4658Z" fill="white"/>
<path d="M78.9132 141.895C77.5457 151.504 76.5655 158.394 56.1839 160.282C53.5396 160.497 50.9 160.746 48.2669 161.029L46.6291 160.22L45.5422 160.573C51.2807 181.371 62.3161 196.785 73.9399 215.953C75.6002 207.043 77.3633 198.146 79.2294 189.264C87.7206 164.409 89.4726 155.854 80.9121 131.896L80.204 134.674C79.5792 137.213 79.2359 139.629 78.9132 141.895Z" fill="white"/>
<path d="M125.336 128.741C115.48 120.218 97.4222 117.836 82.7856 115.02C88.5241 121.453 122.802 164.457 125.027 165.901C129.682 164.268 134.296 165.207 138.951 166.153C142.495 166.874 146.062 167.6 149.689 167.198C151.276 167.023 155.091 164.86 158.912 162.693C163.085 160.327 167.266 157.957 168.56 158.166C175.797 159.339 179.866 161.275 183.445 162.978C188.995 165.62 193.367 167.699 206.556 165.502C189.559 161.201 184.524 163.84 170.506 153.412C169.619 153.399 177.197 157.559 176.5 157.5C174.461 157.327 172.102 157.104 170.506 158.514C156.322 171.033 163.757 164.326 152.47 151.421C149.973 148.564 145.796 153.426 147.793 149.601C149.73 145.893 126.542 133.383 125.336 128.741Z" fill="white"/>
<path d="M179.765 114.776C176.763 106.524 162.066 96.926 152.63 94.5459C146.968 97.7737 134.725 104.464 132.483 109.426L136.151 112.934C141.644 111.9 152.573 113.864 163.717 115.866C176.614 118.183 189.8 120.551 195.181 118.386C192.684 116.243 184.278 115.531 179.765 114.776Z" fill="#929D6D"/>
<path d="M105.986 236.674C111.454 235.679 120.069 220.226 121.915 215.842C118.196 206.063 113.302 196.584 107.301 187.533C98.034 196.487 103.874 211.209 108.911 220.63L103.951 222.752C104.205 228.196 104.605 231.329 105.986 236.674Z" fill="#929D6D"/>
<path d="M86.0521 235.147C92.9859 225.943 83.4836 199.631 79.2295 189.264C77.3635 198.147 75.6003 207.044 73.94 215.953L73.5874 220.05L73.9402 223.553H75.2711C76.5871 230.076 76.7892 232.725 79.9086 238.735L80.8589 233.371C82.552 234.487 82.9195 234.929 83.3498 235.092C83.7679 235.252 84.2459 235.149 86.0521 235.147Z" fill="#929D6D"/>
<path d="M143.584 152.634C140.91 150.609 150.044 150.073 147.326 148.086C132.02 156.981 121.795 158.39 146.721 157.4C146.384 153.158 147.141 150.343 147.748 148.086C148.862 143.938 151.18 158.408 143.584 152.634Z" fill="white"/>
<path d="M-0.0849612 294.843C13.1096 306.996 34.8005 329.273 52.3247 336.027C53.7501 339.601 54.1176 340.37 54.6741 344.054L61.6829 348.996C58.8414 354.016 63.2142 363.148 68.9694 375.166C79.0789 396.279 93.4524 426.297 80.4752 458.581C81.2543 460.039 82.224 461.766 83.2949 463.675C88.9341 473.731 97.4002 488.827 95.8685 496.07L96.1334 498.899C97.1651 509.196 98.6323 518.082 100.009 526.426C103.731 548.97 106.798 567.546 98.86 599.267C97.6178 607.864 96.7317 615.234 96.106 623.88C93.9409 625.869 93.9499 627.534 93.9658 630.118C93.9705 630.978 93.9766 631.941 93.9028 633.052C88.3001 622.393 90.8542 617.203 87.5425 608.143C79.8753 587.175 76.7451 566.241 72.594 544.66C70.3622 535.722 50.7657 478.841 45.2702 473.958C39.7422 474.495 40.4951 475.165 35.4507 478.639C33.058 468.928 21.9448 447.106 14.879 438.933C13.2593 418.303 8.99254 404.707 1.76476 391.939C1.84076 390.826 1.81531 389.839 1.70356 388.916C1.63551 388.354 1.54557 387.906 1.49712 387.666C1.48867 387.624 1.48227 387.591 1.47702 387.564L1.21761 385.495C1.21888 385.503 1.21515 385.459 1.20847 385.344C1.38396 384.9 1.51393 384.459 1.60491 384.045C1.9095 382.66 1.84047 381.405 1.7949 380.809C1.74279 380.128 1.64452 379.482 1.59851 379.175C1.57444 379.014 1.55999 378.916 1.55284 378.866C1.47025 377.355 1.33693 376.263 1.2377 375.477C1.10968 374.463 1.11763 373.171 1.05958 370.995C1.05132 370.685 1.04751 370.324 1.04588 369.928C1.21208 369.305 1.30438 368.637 1.30438 367.942C1.30438 367.919 1.30406 367.543 1.29982 366.942C1.2984 366.741 1.29086 366.571 1.28612 366.443C1.29203 366.267 1.29638 366.065 1.29799 365.812C1.30106 365.329 1.29994 364.349 1.26328 363.537C1.24245 363.076 1.21177 362.694 1.18107 362.381C1.16632 362.23 1.15159 362.101 1.14179 362.012C1.13631 361.963 1.1339 361.936 1.13083 361.908C1.13072 361.905 1.13005 361.897 1.12992 361.894C1.12967 361.888 1.12715 361.844 1.12626 361.824L1.11165 361.55L1.09247 361.284C1.08736 361.221 1.08583 361.206 1.08424 361.185C1.0831 361.17 1.08124 361.15 1.07968 361.1C1.07723 361.022 1.07512 360.877 1.0742 360.691C1.07355 360.561 1.07367 360.436 1.0742 360.338C1.07495 360.32 1.07629 360.305 1.07694 360.291L1.07876 360.249C1.08137 360.222 1.08557 360.184 1.0879 360.157C1.12242 359.757 1.12261 359.455 1.12261 359.337C1.12261 358.819 1.06895 358.318 0.974632 357.839C1.01259 357.629 1.05344 357.38 1.08516 357.111L1.10708 356.902C1.10708 356.902 1.11032 356.88 1.11804 356.821C1.12357 356.779 1.13879 356.663 1.15275 356.539C1.16676 356.415 1.18949 356.198 1.20299 355.937L1.22217 355.524C1.23112 355.193 1.22614 354.85 1.2103 354.474C1.18405 353.851 1.11706 352.915 1.08424 352.465C1.07548 352.345 1.06766 352.236 1.06232 352.163C1.05994 352.131 1.05753 352.104 1.05593 352.081C1.0563 352.063 1.05647 352.048 1.05684 352.036C1.09541 351.618 1.11902 351.038 1.04405 350.355L1.00569 350.059C1.1004 349.347 1.08338 348.755 1.06963 348.481C1.06181 348.326 1.05116 348.198 1.04405 348.116C1.03742 348.041 1.03043 347.968 1.02944 347.958C1.0336 348.004 1.04213 348.12 1.04771 348.255C1.03523 347.951 1.00683 347.682 0.977372 347.469C0.980099 347.292 0.986317 347.072 0.994727 346.802C1.00145 346.587 1.01156 346.365 1.02396 346.128C1.03391 345.938 1.05203 345.619 1.06141 345.385C1.09951 344.435 1.02657 343.636 0.928046 343.008L0.84949 342.582C0.892825 342.114 0.90034 341.736 0.904297 341.612C0.906934 341.53 0.907886 341.448 0.90795 341.366C0.90797 341.339 0.910495 341.04 0.881461 340.68C0.860879 340.424 0.811236 339.956 0.666802 339.387C0.705508 339.129 0.730901 338.865 0.743531 338.597C0.811399 338.255 0.84291 337.992 0.848577 337.945C0.867549 337.788 0.881275 337.643 0.890595 337.536C0.909719 337.316 0.924884 337.082 0.937181 336.863C0.945011 336.724 0.949593 336.584 0.949969 336.444C0.950289 336.324 0.9571 335.691 0.812952 334.926C0.797788 334.845 0.751182 334.609 0.656754 334.282C0.666608 334.206 0.674957 334.144 0.67959 334.101C0.719604 333.727 0.730428 333.38 0.734396 333.248C0.741994 332.995 0.746366 332.646 0.73805 332.288L0.725262 331.931L0.692378 331.467C0.665995 331.179 0.628009 330.906 0.579111 330.624C0.578788 330.601 0.579652 330.577 0.579111 330.552C0.571548 330.206 0.540795 329.746 0.514257 329.39C0.521365 329.305 0.529487 329.215 0.534353 329.122C0.531971 329.167 0.529654 329.201 0.528872 329.212C0.529424 329.204 0.531393 329.186 0.534353 329.149C0.536883 329.118 0.551136 328.935 0.558102 328.848C0.575699 328.628 0.605772 328.248 0.62113 327.886C0.638361 327.479 0.622097 327.124 0.620216 327.07C0.616353 326.958 0.612006 326.839 0.606515 326.622C0.597749 326.275 0.600185 325.52 0.60012 324.862C0.600075 324.401 0.603173 324.05 0.599207 323.585C0.594445 323.026 0.585373 322.581 0.584592 322.248C0.607184 321.892 0.62042 321.351 0.545314 320.74C0.52495 320.574 0.475977 320.216 0.356231 319.755C0.341365 319.459 0.315799 319.247 0.304165 319.153C0.292438 319.058 0.276278 318.96 0.26306 318.875C0.261076 318.857 0.258559 318.841 0.256666 318.825C0.256592 318.779 0.25618 318.72 0.256666 318.645C0.257967 318.444 0.262282 318.193 0.267627 317.898C0.277735 317.34 0.298081 316.716 0.311473 316.421C0.315694 316.327 0.317217 316.33 0.312386 316.381C0.312905 316.376 0.313052 316.375 0.314213 316.364C0.315173 316.354 0.317018 316.338 0.31878 316.321C0.324177 316.268 0.331931 316.165 0.341616 316.033C0.344167 316 0.347472 315.967 0.349837 315.935C0.350625 315.922 0.351821 315.91 0.352578 315.897C0.374622 315.584 0.389624 315.301 0.39825 315.122L0.407384 314.935C0.409273 314.913 0.49015 314.1 0.360799 313.154C0.336412 312.975 0.289592 312.678 0.196379 312.31C0.194292 312.078 0.184797 311.839 0.161668 311.593C0.143743 311.403 0.118496 311.225 0.0922466 311.061C0.0937752 310.979 0.0964705 310.891 0.0986407 310.79C0.101443 310.658 0.105401 310.478 0.106862 310.31C0.111188 309.811 0.100818 309.383 0.0767181 308.985C0.0691392 308.86 0.0556575 308.738 0.0465745 308.631C0.0515885 308.504 0.0582892 308.362 0.0611896 308.222L0.070324 307.682C0.0733047 307.634 0.0790728 307.565 0.0876794 307.46C0.0918942 307.409 0.0961654 307.357 0.101381 307.295C0.106291 307.237 0.112177 307.167 0.117823 307.099C0.127936 306.975 0.144404 306.772 0.155274 306.559C0.175858 306.157 0.164104 305.824 0.157101 305.658C0.150274 305.496 0.13919 305.328 0.136092 305.279C0.127493 305.14 0.122924 305.053 0.120563 304.929C0.114347 304.601 0.114017 303.842 0.120563 303.387C0.121866 303.297 0.124093 303.241 0.125131 303.212C0.126313 303.198 0.127896 303.181 0.129698 303.16C0.14257 303.008 0.166753 302.692 0.164409 302.311C0.163321 302.135 0.156087 301.756 0.0940735 301.289C0.0825858 301.202 0.0270855 300.703 -0.179046 300.042C-0.158544 299.532 -0.187254 299.016 -0.268563 298.505C-0.267111 298.426 -0.263527 298.238 -0.263996 298.058C-0.263887 298.049 -0.263316 297.903 -0.272217 297.678C-0.249309 297.499 -0.235707 297.371 -0.231112 297.319C-0.216395 297.154 -0.209399 297.083 -0.208276 297.069C-0.152217 296.638 -0.133275 296.294 -0.12698 296.114C-0.0874368 295.683 -0.0751827 295.255 -0.0849612 294.843Z" fill="#929D6D"/>
<path d="M-0.0853863 294.841C13.109 306.995 34.7997 329.272 52.3243 336.026C53.7497 339.601 54.118 340.369 54.6746 344.054L61.6834 348.995C58.8418 354.016 63.2138 363.148 68.969 375.166C79.0784 396.279 93.4528 426.297 80.4756 458.581L71.8464 445.72C62.2972 430.409 58.5328 429.781 45.6342 417.39C46.3197 412.27 41.6635 402.06 37.8809 393.767C36.3854 390.489 35.026 387.511 34.1888 385.264C28.7721 370.741 23.0623 356.353 20.7192 341.163C18.7484 328.389 19.751 328.06 7.38748 319.617C4.39778 317.713 2.31596 316.341 0.406959 314.939C0.407201 314.936 0.408548 314.926 0.408786 314.922C0.410829 314.9 0.49049 314.098 0.361287 313.153C0.336847 312.975 0.289604 312.677 0.195954 312.307C0.193809 312.076 0.185202 311.838 0.162157 311.593C0.14436 311.404 0.118755 311.228 0.0927349 311.064C0.0942748 310.982 0.0960139 310.893 0.0982156 310.789C0.101018 310.658 0.104976 310.478 0.106437 310.31C0.110762 309.811 0.101305 309.383 0.0772064 308.985C0.0695983 308.859 0.0552651 308.737 0.0461494 308.629C0.0589882 308.304 0.0669835 307.875 0.0698989 307.656C0.069065 307.718 0.0675423 307.734 0.0708123 307.681C0.073793 307.633 0.0786476 307.564 0.0872543 307.46C0.0914692 307.409 0.0957404 307.356 0.100956 307.295C0.105865 307.237 0.111753 307.167 0.117398 307.098C0.12751 306.975 0.143978 306.772 0.154849 306.559C0.175433 306.156 0.164592 305.823 0.157589 305.657C0.150763 305.496 0.139679 305.328 0.13658 305.278C0.127979 305.14 0.122499 305.053 0.120138 304.929C0.113922 304.601 0.114505 303.841 0.121052 303.387C0.122673 303.275 0.124814 303.215 0.125619 303.195C0.124493 303.214 0.113361 303.348 0.129273 303.16C0.142145 303.007 0.166328 302.691 0.163983 302.311C0.162895 302.135 0.156562 301.756 0.0945618 301.289C0.0830872 301.202 0.0272405 300.704 -0.178557 300.044C-0.157875 299.533 -0.186656 299.016 -0.268075 298.505C-0.266623 298.426 -0.263039 298.238 -0.263508 298.057C-0.263397 298.049 -0.262723 297.902 -0.271729 297.676C-0.24904 297.497 -0.236115 297.371 -0.231537 297.319C-0.202569 296.994 -0.203833 297.033 -0.218749 297.159C-0.152819 296.684 -0.134073 296.303 -0.127405 296.112C-0.0879917 295.681 -0.0755745 295.253 -0.0853863 294.841Z" fill="white"/>
<path d="M45.6342 417.39C34.9607 408.411 20.6571 398.361 9.12127 389.998C8.30844 395.669 13.9066 404.675 17.7135 409.468C19.748 416.003 24.2218 429.32 28.2897 434.915C33.0844 441.509 48.5217 445.408 49.5936 454.573C49.8302 456.603 49.5524 459.165 49.2531 461.923C48.5057 468.794 47.6284 476.873 54.2844 480.929L56.4367 476.109C61.5288 477.863 76.8903 490.861 85.9568 495.949L95.8689 496.071C97.401 488.828 88.9341 473.732 83.2948 463.676C82.2238 461.766 81.2547 460.039 80.4756 458.581L71.8468 445.719C62.2977 430.409 58.5329 429.781 45.6342 417.39Z" fill="url(#paint2_linear_562_3687)"/>
<path d="M45.6342 417.39C34.9607 408.411 20.6571 398.361 9.12127 389.998C8.30844 395.669 13.9066 404.675 17.7135 409.468C33.2855 416.303 40.8891 443.595 65.9035 447.165L71.8468 445.719C62.2977 430.409 58.5329 429.781 45.6342 417.39Z" fill="#77865A"/>
<path d="M95.8686 496.071L85.9565 495.949C84.4908 499.32 79.8224 508.709 78.9291 511.391C74.1532 525.745 81.6155 545.502 88.7486 564.388C93.5245 577.034 98.1537 589.289 98.8599 599.268C106.798 567.546 103.731 548.971 100.009 526.427C98.6326 518.083 97.165 509.197 96.1333 498.899L95.8686 496.071Z" fill="#929D6D"/>
<path d="M201.726 218.249C187.661 212.762 181.414 210.173 165.319 210.055C184.555 215.977 183.24 222.617 190.984 237.231C198.63 243.208 230.857 258.669 241.538 256.95L243.154 254.759C239.677 243.922 212.777 225.957 201.726 218.249Z" fill="#929D6D"/>
<path d="M-1.98773 206.454C-0.411454 207.442 1.27837 208.754 3.49931 210.48C3.91351 210.803 4.34748 211.141 4.8028 211.493L6.26339 212.641L17.9792 220.905C41.5163 242.216 42.5036 248.601 59.7308 271.962C70.501 287.559 106.582 358.107 110.906 383.095C111.881 384.602 112.136 385.182 111.074 384.153C111.288 385.639 111.373 386.94 111.315 388.03L107.646 380.447C104.308 376.689 98.6643 370.137 89.7557 359.671C79.0365 357.451 71.3178 353.343 61.6828 348.996L54.6749 344.056C54.1184 340.371 53.75 339.602 52.3246 336.027C34.8002 329.273 13.1094 306.995 -0.0850329 294.842C-0.0991631 294.248 -0.155338 293.687 -0.235751 293.198L-0.237578 293.156L-0.261327 292.84C-0.272394 292.717 -0.284537 292.607 -0.295125 292.517C-0.294561 292.482 -0.293982 292.447 -0.293298 292.406C-0.292566 292.362 -0.291331 292.314 -0.290557 292.263C-0.28541 291.93 -0.277931 291.691 -0.272288 291.552C-0.271682 291.538 -0.27096 291.524 -0.270462 291.513C-0.227019 291.06 -0.221826 290.708 -0.221136 290.572C-0.21939 290.228 -0.232383 289.899 -0.246712 289.634C-0.263131 289.33 -0.287923 289.08 -0.306999 288.905C-0.315231 288.83 -0.323937 288.753 -0.326182 288.733L-0.34445 288.568C-0.347289 288.544 -0.352276 288.504 -0.354498 288.486C-0.360422 288.436 -0.367105 288.376 -0.375507 288.301C-0.3779 288.28 -0.380182 288.256 -0.382815 288.232C-0.350916 288.065 -0.317612 287.875 -0.290557 287.662C-0.211233 287.038 -0.199866 286.455 -0.205607 285.961C-0.212427 285.375 -0.264202 284.697 -0.28325 284.444C-0.306245 284.139 -0.334168 283.866 -0.363633 283.612C-0.337491 283.398 -0.301586 283.096 -0.263154 282.745C-0.255498 282.675 -0.248819 282.604 -0.243058 282.534C-0.229045 282.363 -0.219804 282.239 -0.212915 282.139L-0.208348 282.061C-0.201591 281.974 -0.195734 281.886 -0.191906 281.798C-0.18545 281.65 -0.184273 281.526 -0.183685 281.472C-0.182955 281.405 -0.182771 281.351 -0.182771 281.337C-0.182826 280.437 -0.33474 279.583 -0.605695 278.815C-0.6056 278.686 -0.608076 278.565 -0.613002 278.452C-0.613429 278.442 -0.615277 278.432 -0.615743 278.422C-0.519148 277.562 -0.525867 276.735 -0.541754 276.206C-0.548259 275.99 -0.559858 275.785 -0.572811 275.588C-0.546327 275.273 -0.537581 274.951 -0.549975 274.624C-0.576286 273.932 -0.603357 273.215 -0.61757 272.887C-0.621138 272.805 -0.624915 272.716 -0.629444 272.634C-0.631509 272.596 -0.635698 272.523 -0.642233 272.437C-0.64542 272.395 -0.652062 272.314 -0.662328 272.214C-0.667048 272.168 -0.694431 271.89 -0.760067 271.548C-0.768223 271.506 -0.794366 271.382 -0.837709 271.203C-0.802867 270.912 -0.784635 270.614 -0.782903 270.311C-0.781473 270.287 -0.778545 270.265 -0.777422 270.244C-0.761406 269.943 -0.761333 269.676 -0.761893 269.534C-0.762488 269.384 -0.76535 269.219 -0.766461 269.142C-0.767951 269.037 -0.768408 268.991 -0.768288 268.964C-0.765736 268.392 -0.801574 267.882 -0.862372 267.412C-0.858959 267.204 -0.856074 267.025 -0.855065 266.913C-0.852292 266.864 -0.849363 266.821 -0.847757 266.785C-0.841245 266.639 -0.837176 266.494 -0.834969 266.363C-0.830452 266.094 -0.831062 265.771 -0.836796 265.406C-0.841883 265.082 -0.85828 264.806 -0.866026 264.673C-0.874624 264.526 -0.876909 264.481 -0.878814 264.422C-0.89059 264.054 -0.896227 263.751 -0.900737 263.51C-0.902747 263.402 -0.905106 263.262 -0.908044 263.149C-0.909508 263.094 -0.912443 263.002 -0.917179 262.899C-0.919576 262.848 -0.923861 262.766 -0.93088 262.668L-0.932707 262.646C-0.934153 262.592 -0.936601 262.514 -0.939101 262.444C-0.942296 262.299 -0.944573 262.041 -0.944582 261.878C-0.900142 261.171 -0.952036 260.479 -1.08617 259.827C-1.06606 259.72 -1.04812 259.621 -1.03501 259.531C-0.934057 258.834 -0.944348 258.22 -0.966504 257.831C-0.95851 257.78 -0.950721 257.736 -0.946409 257.707C-0.933256 257.617 -0.934679 257.624 -0.929967 257.593C-0.805592 256.768 -0.813469 256.078 -0.834969 255.635C-0.840823 255.514 -0.848773 255.399 -0.854151 255.325C-0.859074 255.143 -0.865692 254.894 -0.87516 254.684C-0.881694 254.54 -0.892633 254.325 -0.914438 254.087C-0.9221 254.003 -0.937892 253.853 -0.964678 253.658C-0.8228 252.761 -0.820326 251.987 -0.812133 251.512C-0.79988 250.803 -0.853775 250.057 -1.01766 249.294C-1.09616 248.928 -1.18202 248.645 -1.2314 248.489C-1.24825 248.433 -1.26796 248.379 -1.28621 248.323C-1.26222 248.138 -1.25216 248.013 -1.24876 247.973C-1.20291 247.427 -1.21642 246.891 -1.2789 246.373C-1.26864 246.222 -1.26123 246.097 -1.25881 246.009C-1.25589 245.904 -1.25536 245.816 -1.25515 245.765V245.675C-1.25515 245.613 -1.25553 245.495 -1.26155 245.348C-1.26462 245.273 -1.27876 244.877 -1.3602 244.387C-1.3657 244.354 -1.37573 244.304 -1.3876 244.24C-1.29173 243.767 -1.24798 243.363 -1.22866 243.098C-1.19691 242.663 -1.20101 242.294 -1.20674 242.068C-1.20954 241.958 -1.21555 241.853 -1.21953 241.77C-1.22334 241.22 -1.27249 240.781 -1.2926 240.602C-1.30962 240.451 -1.33611 240.252 -1.35928 240.07C-1.34494 239.862 -1.33795 239.702 -1.33645 239.631C-1.3337 239.5 -1.33462 239.382 -1.33462 239.363C-1.33462 238.894 -1.37765 238.438 -1.4552 238C-1.4233 237.559 -1.42822 237.18 -1.43053 237.04C-1.43222 236.938 -1.43613 236.818 -1.43875 236.729C-1.42597 236.576 -1.41033 236.371 -1.40039 236.141C-1.37307 235.509 -1.3619 234.948 -1.38303 234.434C-1.39313 234.188 -1.41294 233.955 -1.43784 233.726C-1.44005 233.631 -1.44657 233.517 -1.45337 233.387C-1.44422 233.286 -1.4312 233.159 -1.42414 233.015C-1.42896 233.114 -1.43555 233.188 -1.43875 233.225C-1.43787 233.217 -1.43631 233.207 -1.4351 233.195C-1.43268 233.172 -1.4294 233.141 -1.42597 233.106C-1.41892 233.035 -1.41072 232.942 -1.40222 232.834C-1.37132 232.442 -1.33077 231.729 -1.31453 231.408C-1.28175 230.761 -1.32993 230.233 -1.36111 229.958C-1.38327 229.762 -1.4111 229.589 -1.43327 229.453C-1.41427 229.223 -1.38711 228.859 -1.38486 228.418C-1.38353 228.155 -1.39571 227.893 -1.42049 227.633L-1.43967 227.464C-1.44095 227.444 -1.44325 227.408 -1.44698 227.342C-1.44941 227.298 -1.45215 227.25 -1.4552 227.194C-1.45841 226.879 -1.46562 226.136 -1.50361 225.443C-1.51935 225.156 -1.55182 224.876 -1.59678 224.602C-1.56892 224.298 -1.55766 223.986 -1.56481 223.668C-1.37128 222.159 -1.54028 220.903 -1.55202 220.781C-1.58622 220.424 -1.59628 220.248 -1.59952 220.181C-1.60141 220.142 -1.60263 220.118 -1.605 220.05C-1.60597 220.022 -1.60801 219.954 -1.61139 219.88C-1.6149 219.804 -1.62144 219.677 -1.63423 219.523C-1.64659 219.376 -1.66184 219.25 -1.66437 219.228C-1.66993 219.181 -1.675 219.135 -1.67899 219.103C-1.68549 219.051 -1.69901 218.946 -1.70639 218.887C-1.72273 218.757 -1.7423 218.599 -1.76303 218.418C-1.77371 217.617 -1.7646 217.715 -1.77673 216.765C-1.78012 216.499 -1.78572 216.316 -1.7886 216.207C-1.77694 215.732 -1.78267 215.335 -1.80322 214.96C-1.80917 214.852 -1.8176 214.744 -1.8224 214.677C-1.82317 214.621 -1.82403 214.527 -1.82605 214.425C-1.83068 214.19 -1.84002 213.882 -1.86168 213.515C-1.89789 212.901 -1.96707 212.142 -1.98956 211.884C-1.99822 211.785 -2.00396 211.703 -2.00874 211.634C-2.00816 211.63 -2.00656 211.626 -2.006 211.622C-1.97291 211.386 -1.93186 211.048 -1.91283 210.645C-1.89906 210.353 -1.89419 210.091 -1.89091 209.879C-1.80966 209.317 -1.78343 208.81 -1.78038 208.28C-1.77871 207.988 -1.79271 207.696 -1.82331 207.407C-1.82496 207.391 -1.85676 207.005 -1.98773 206.454ZM-0.347191 292.131C-0.353329 292.168 -0.361949 292.212 -0.37094 292.261C-0.358608 292.194 -0.346583 292.127 -0.336229 292.062C-0.339572 292.083 -0.343202 292.106 -0.347191 292.131ZM-0.897083 267.419C-0.901294 267.456 -0.908671 267.501 -0.915352 267.551C-0.904922 267.472 -0.896545 267.4 -0.889775 267.336C-0.892416 267.362 -0.893792 267.39 -0.897083 267.419Z" fill="url(#paint3_linear_562_3687)"/>
<path d="M-1.22219 247.328C4.72239 257.352 13.2099 268.174 24.6036 272.91C27.0675 275.889 27.9771 276.349 28.1952 277.129C28.3644 277.734 28.119 278.533 27.8618 280.845C23.8344 275.924 22.5536 275.664 15.523 273.711L12.3991 274.976C22.007 287.01 24.8991 287.664 24.9525 301.303C31.4635 308.104 60.4156 343.52 66.4173 351.628C48.8485 344.858 14.3689 308.399 -0.084043 294.863C-0.0972254 294.266 -0.154374 293.702 -0.234761 293.21L-0.237501 293.155L-0.261251 292.841C-0.272451 292.716 -0.28528 292.604 -0.295962 292.514C-0.295407 292.481 -0.29388 292.446 -0.293221 292.406C-0.292493 292.362 -0.292168 292.313 -0.291394 292.263C-0.286246 291.93 -0.278765 291.69 -0.273126 291.552C-0.272654 291.541 -0.271696 291.53 -0.271299 291.521C-0.227181 291.064 -0.222666 290.709 -0.221973 290.573C-0.221101 290.401 -0.223656 290.232 -0.228367 290.074L-0.246636 289.635L-0.275866 289.221C-0.286435 289.099 -0.297386 288.992 -0.306923 288.905C-0.315205 288.829 -0.324873 288.751 -0.327019 288.733C-0.336077 288.644 -0.345287 288.567 -0.345287 288.567C-0.348115 288.543 -0.352214 288.505 -0.354422 288.487C-0.360363 288.437 -0.367914 288.375 -0.376344 288.3C-0.37863 288.28 -0.381147 288.258 -0.383652 288.235C-0.351579 288.068 -0.317677 287.877 -0.290481 287.663C-0.230985 287.195 -0.209934 286.749 -0.205531 286.348V285.961L-0.218319 285.512C-0.236722 285.062 -0.26983 284.633 -0.284087 284.443C-0.307097 284.138 -0.334985 283.865 -0.36447 283.612C-0.338337 283.398 -0.302398 283.097 -0.263991 282.745C-0.256345 282.676 -0.248736 282.605 -0.242982 282.535C-0.228964 282.363 -0.22064 282.238 -0.213752 282.139L-0.208271 282.062C-0.201523 281.974 -0.196569 281.886 -0.192743 281.799C-0.186268 281.65 -0.184193 281.525 -0.183608 281.472C-0.182887 281.405 -0.182695 281.351 -0.182695 281.338C-0.182748 280.437 -0.335037 279.582 -0.606532 278.814C-0.606469 278.685 -0.608014 278.564 -0.612926 278.451C-0.61344 278.44 -0.615142 278.429 -0.615666 278.418C-0.519644 277.56 -0.525829 276.735 -0.541677 276.207C-0.548204 275.99 -0.559733 275.784 -0.572735 275.586C-0.546388 275.272 -0.537511 274.95 -0.549898 274.624C-0.576202 273.932 -0.603285 273.216 -0.617493 272.888C-0.621058 272.806 -0.624843 272.716 -0.629368 272.634C-0.631447 272.597 -0.636522 272.523 -0.64307 272.437C-0.646267 272.394 -0.652051 272.314 -0.662252 272.215C-0.667 272.169 -0.694416 271.891 -0.75999 271.549C-0.768179 271.506 -0.794149 271.382 -0.837633 271.203C-0.802755 270.911 -0.783536 270.612 -0.781913 270.308C-0.780564 270.286 -0.77841 270.264 -0.777346 270.244C-0.761346 269.944 -0.761258 269.677 -0.761817 269.535C-0.762412 269.385 -0.76527 269.22 -0.766384 269.142C-0.767868 269.039 -0.768329 268.991 -0.768211 268.965C-0.76565 268.39 -0.800987 267.878 -0.862296 267.405C-0.858823 267.192 -0.855993 267.01 -0.854988 266.899C-0.852585 266.856 -0.849132 266.817 -0.847681 266.784C-0.841205 266.639 -0.83801 266.495 -0.835806 266.364C-0.831296 266.095 -0.830991 265.772 -0.836719 265.406C-0.841803 265.083 -0.858198 264.807 -0.865949 264.674C-0.874566 264.527 -0.877745 264.481 -0.879651 264.422C-0.891423 264.053 -0.897065 263.751 -0.901574 263.509C-0.903582 263.402 -0.905949 263.262 -0.908881 263.15C-0.910348 263.094 -0.913277 263.001 -0.918016 262.899C-0.920425 262.847 -0.924718 262.765 -0.931717 262.668C-0.932232 262.661 -0.932863 262.652 -0.933544 262.643C-0.933626 262.639 -0.933435 262.634 -0.933544 262.63C-0.935103 262.572 -0.938065 262.504 -0.940852 262.429C-0.943799 262.285 -0.945308 262.047 -0.945419 261.889C-0.899798 261.179 -0.952404 260.484 -1.087 259.829C-1.06676 259.722 -1.0481 259.622 -1.03494 259.531C-0.93392 258.834 -0.945156 258.22 -0.967342 257.831C-0.959412 257.78 -0.951535 257.737 -0.947246 257.708C-0.934102 257.618 -0.93547 257.625 -0.930804 257.594C-0.806431 256.769 -0.813398 256.078 -0.834892 255.635C-0.840408 255.522 -0.84967 255.413 -0.854988 255.339C-0.859932 255.155 -0.86538 254.898 -0.875084 254.684C-0.881627 254.539 -0.89349 254.324 -0.915275 254.087C-0.923016 254.002 -0.938448 253.85 -0.965515 253.654C-0.824264 252.759 -0.821157 251.986 -0.81297 251.512C-0.800759 250.802 -0.854547 250.057 -1.01849 249.293C-1.09702 248.928 -1.18198 248.645 -1.23133 248.489L-1.25416 248.417C-1.26393 248.385 -1.27603 248.355 -1.28613 248.324C-1.26213 248.138 -1.253 248.014 -1.2496 247.973C-1.23137 247.757 -1.22272 247.541 -1.22219 247.328ZM-0.347114 292.131C-0.353211 292.168 -0.361948 292.212 -0.370864 292.261C-0.358539 292.193 -0.346498 292.127 -0.336153 292.061C-0.33953 292.083 -0.343077 292.107 -0.347114 292.131ZM-0.89792 267.419C-0.902101 267.456 -0.909571 267.501 -0.916189 267.551C-0.907218 267.483 -0.898663 267.42 -0.892439 267.363C-0.894333 267.381 -0.895744 267.4 -0.89792 267.419ZM-0.92989 262.767C-0.929489 262.778 -0.929946 262.787 -0.92989 262.791C-0.930096 262.783 -0.930332 262.774 -0.930804 262.753C-0.930596 262.758 -0.930061 262.763 -0.92989 262.767ZM-1.08244 257.98C-1.08184 257.99 -1.08173 258 -1.08152 258.004C-1.08173 258.001 -1.08304 257.98 -1.08426 257.959L-1.08244 257.98Z" fill="url(#paint4_linear_562_3687)"/>
<path d="M24.9532 301.302C24.8999 287.663 22.0077 287.01 12.3997 274.976C8.81629 283.77 10.2053 301.143 21.0855 305.796L24.9532 301.302Z" fill="#8D9767"/>
<path d="M15.5226 273.711L12.3994 274.975C22.0075 287.009 24.8996 287.663 24.9529 301.302C31.464 308.104 49.476 336.513 55.4773 344.621C56.9028 348.196 54.1176 340.37 54.6742 344.055L61.6828 348.996C71.318 353.342 79.0357 357.45 89.755 359.67C85.2812 353.294 79.2238 350.317 74.2635 344.621C55.2896 322.828 35.6442 306.913 27.8619 280.844C23.8343 275.923 22.5537 275.664 15.5226 273.711Z" fill="#929D6D"/>
<path d="M35.4504 478.639C33.0577 468.928 21.9447 447.106 14.8789 438.933C15.3943 452.533 15.4626 469.416 17.4184 482.685C22.0943 515.531 34.8826 570.876 60.854 597.114L70.7436 610.467C78.0572 620.729 88.059 635.821 96.062 645.3C96.12 644.178 96.1967 642.965 96.2781 641.694C96.6494 635.84 97.0984 628.77 96.106 623.88C93.9406 625.869 93.95 627.534 93.9659 630.118C93.9705 630.978 93.9762 631.941 93.9023 633.052C88.2994 622.393 90.8539 617.203 87.5418 608.143C79.8746 587.174 76.7449 566.241 72.5937 544.66C70.3619 535.722 50.7651 478.84 45.2698 473.958C39.7418 474.495 40.4948 475.165 35.4504 478.639Z" fill="#B5B787"/>
<path d="M32.6832 480.57C25.8475 482.537 24.2668 481.797 17.4189 482.685C22.0948 515.531 34.8832 570.876 60.8545 597.114C69.6581 587.439 58.6077 551.145 53.4258 539.741L51.2324 528.851C52.2313 524.058 43.1331 489.011 40.0052 486.36C38.2336 490.201 39.2719 488.996 35.9906 492.009C33.4258 489.841 33.3678 484.279 32.6832 480.57Z" fill="url(#paint5_linear_562_3687)"/>
<path d="M84.1412 241.877C81.0433 245.938 79.7478 247.959 78.456 252.775C77.241 266.676 90.1584 294.72 102.298 321.076C112.139 342.436 121.468 362.689 122.348 373.405C131.13 348.78 138.271 326.334 138.81 300.392C138.911 295.516 138.582 290.72 138.259 286.002C137.96 281.641 137.666 277.345 137.719 273.113C136.577 267.026 135.783 256.622 132.743 251.81L131.303 253.16L129.582 251.985C123.843 248.127 123.108 247.215 116.234 245.446L114.918 246.573C120.114 253.996 116.499 265.981 113.628 275.501C112.978 277.654 112.367 279.681 111.905 281.5C111.34 278.963 109.495 267.924 107.372 267.273C89.0668 261.66 93.9494 254.44 86.532 242.029L84.1412 241.877Z" fill="#929D6D"/>
<path d="M157.935 24.359C141.005 12.9396 123.552 10.3969 102.234 12.4676L96.9441 13.713C93.0427 14.5983 88.4875 15.3146 85.1885 16.9092C94.2653 30.8628 101.96 23.9135 103.318 31.2257L101.661 33.6181C105.859 38.2307 123.151 38.1451 131.347 44.7349L129.544 46.8925L128.862 48.2938L123.291 48.7876C121.71 52.8155 125.908 59.5584 130.016 66.1582C132.179 69.6329 134.318 73.068 135.575 76.0463L137.072 75.4476L147.431 72.4666C161.337 66.1265 174.622 56.9281 190.212 54.289C178.818 44.5998 170.439 34.7621 157.935 24.359Z" fill="#929D6D"/>
<path d="M131.008 48.6293C130.364 48.5263 129.657 48.4135 128.862 48.293L123.292 48.7868C121.71 52.8147 125.908 59.5576 130.016 66.1574C132.18 69.6321 134.318 73.0672 135.575 76.0455L137.072 75.4468L147.432 72.4658C161.337 66.1257 174.622 56.9273 190.212 54.2882C185.876 54.3029 179.109 53.1125 171.727 51.814C160.924 49.9138 148.804 47.7817 141.052 48.8551C136.427 49.4955 134.827 49.2397 131.008 48.6293Z" fill="#929D6D"/>
<path d="M157.935 24.359C141.005 12.9396 123.552 10.3969 102.234 12.4676C110.599 13.5203 113.745 13.8114 115.061 15.9698C116.211 17.8558 115.963 21.1674 116.577 27.6584L124.251 25.3819L126.861 26.6193C127.45 29.3542 127.969 31.5863 128.777 34.2849C132.311 35.3631 132.762 35.7263 136.451 36.1701C149.966 32.6653 154.693 36.1606 157.935 24.359Z" fill="#929D6D"/>
<path d="M102.234 12.4678L96.9441 13.7132C101.599 16.2904 103.869 20.6551 110.21 24.7733C108.771 27.2365 107.958 28.8374 107.05 31.4955C110.676 33.1856 112.214 32.5285 113.576 31.9467C115.678 31.0484 117.361 30.3294 125.661 38.7005C130.236 39.2941 132.904 39.5734 136.451 36.1702C132.762 35.7264 132.311 35.3632 128.776 34.2851C127.969 31.5864 127.45 29.3543 126.861 26.6194L124.251 25.382L116.577 27.6585C115.963 21.1676 116.211 17.8559 115.061 15.97C113.745 13.8115 110.599 13.5204 102.234 12.4678Z" fill="#929D6D"/>
<path d="M0.299212 312.779C1.978 313.998 3.85885 315.256 6.40192 316.908C18.6753 325.46 20.966 325.343 22.9224 338.281C33.007 355.268 40.4617 363.613 45.8389 378.323C46.6699 380.598 39.6773 386.529 41.162 389.85C44.917 398.249 48.3902 413.785 47.7096 418.971C37.1143 409.876 19.5744 396.664 8.12284 388.193C5.9199 386.146 3.82539 384.112 1.83197 382.091C1.84475 381.547 1.81767 381.099 1.79543 380.809C1.74328 380.127 1.6441 379.482 1.59813 379.175C1.57171 378.998 1.55801 378.898 1.55154 378.852C1.46887 377.349 1.33625 376.26 1.23732 375.476C1.10931 374.462 1.11725 373.171 1.0592 370.995C1.05094 370.685 1.04713 370.324 1.04549 369.928C1.21178 369.306 1.30395 368.638 1.304 367.942C1.304 367.921 1.30368 367.545 1.29943 366.942C1.29797 366.735 1.29063 366.559 1.28573 366.429C1.29139 366.256 1.29695 366.058 1.29852 365.812C1.30158 365.329 1.29952 364.35 1.26289 363.538C1.24208 363.077 1.21138 362.695 1.18068 362.382C1.16593 362.231 1.15212 362.101 1.14232 362.012C1.13687 361.963 1.13351 361.937 1.13044 361.909C1.12979 361.903 1.12998 361.898 1.12953 361.893C1.12922 361.886 1.12766 361.843 1.12679 361.823L1.11218 361.55L1.09208 361.283C1.08702 361.221 1.08635 361.207 1.08477 361.186C1.08362 361.171 1.08178 361.15 1.0802 361.101C1.07776 361.023 1.07565 360.878 1.07472 360.692C1.07411 360.569 1.07427 360.451 1.07472 360.355C1.07576 360.33 1.07661 360.309 1.07746 360.29C1.07849 360.268 1.07869 360.252 1.07929 360.24C1.08201 360.212 1.08509 360.184 1.08751 360.156C1.12205 359.757 1.12222 359.454 1.12222 359.336C1.12221 358.819 1.06917 358.319 0.975159 357.84C1.01312 357.629 1.05399 357.381 1.08569 357.112L1.10761 356.901C1.10713 356.905 1.10932 356.885 1.11766 356.821C1.12319 356.778 1.13842 356.662 1.15237 356.539C1.16637 356.414 1.18912 356.199 1.20261 355.938C1.2093 355.832 1.21722 355.692 1.22179 355.523C1.23073 355.193 1.22667 354.851 1.21083 354.474C1.18459 353.851 1.11668 352.915 1.08386 352.465C1.07509 352.345 1.06727 352.235 1.06194 352.163C1.05936 352.128 1.05721 352.099 1.05554 352.076C1.05574 352.067 1.05625 352.059 1.05646 352.051C1.09576 351.632 1.1202 351.048 1.04458 350.358L1.00622 350.058C1.10089 349.347 1.0839 348.755 1.07016 348.482C1.06232 348.327 1.0517 348.197 1.04458 348.116C1.03802 348.041 1.03016 347.97 1.02905 347.958C1.0315 347.986 1.03396 348.037 1.03819 348.102C1.02363 347.861 1.00227 347.646 0.977899 347.47C0.98062 347.292 0.98593 347.073 0.994341 346.803C1.00106 346.588 1.01209 346.366 1.02448 346.129C1.03444 345.939 1.05256 345.619 1.06194 345.385C1.1 344.434 1.02617 343.637 0.92766 343.009C0.90049 342.836 0.870087 342.683 0.84819 342.571C0.891476 342.103 0.900869 341.735 0.904824 341.612C0.907453 341.53 0.908417 341.448 0.908478 341.365C0.90851 341.337 0.910938 341.04 0.881988 340.681C0.861438 340.425 0.811076 339.957 0.666415 339.388C0.705208 339.129 0.731429 338.865 0.744058 338.596C0.812018 338.254 0.842648 337.99 0.84819 337.945C0.867151 337.788 0.880891 337.644 0.890209 337.537C0.909361 337.317 0.925399 337.082 0.937708 336.863C0.945522 336.723 0.949207 336.583 0.949582 336.443C0.949923 336.323 0.9564 335.69 0.812566 334.927C0.797423 334.846 0.751408 334.61 0.657281 334.284C0.667248 334.207 0.674538 334.144 0.679204 334.101C0.719133 333.728 0.730033 333.381 0.73401 333.249C0.744142 332.912 0.7488 332.402 0.724876 331.931C0.701061 331.462 0.653932 331.053 0.579638 330.625C0.579316 330.602 0.580181 330.578 0.579638 330.553C0.572132 330.209 0.540302 329.752 0.513871 329.396C0.521206 329.31 0.52989 329.218 0.53488 329.123C0.532553 329.167 0.530206 329.2 0.529399 329.212C0.529977 329.204 0.531057 329.185 0.533966 329.149C0.53657 329.116 0.551701 328.935 0.558629 328.848C0.576229 328.627 0.60539 328.248 0.620743 327.886C0.637954 327.479 0.622602 327.123 0.620743 327.069C0.616881 326.957 0.612532 326.838 0.607042 326.621C0.602659 326.448 0.600372 326.172 0.599734 325.858V323.585C0.594913 323.019 0.585696 322.57 0.585119 322.236C0.607154 321.88 0.620014 321.345 0.545841 320.74C0.525475 320.575 0.475809 320.216 0.355845 319.755C0.34099 319.46 0.315426 319.248 0.303779 319.154L0.258107 318.842C0.25802 318.796 0.256691 318.722 0.257193 318.644C0.258496 318.444 0.261905 318.194 0.267241 317.899C0.277342 317.341 0.297694 316.717 0.311086 316.421L0.312 316.383C0.312509 316.378 0.312652 316.375 0.313827 316.363C0.314794 316.354 0.316615 316.338 0.318394 316.321C0.323801 316.267 0.331538 316.164 0.34123 316.033C0.343754 316 0.347109 315.968 0.349451 315.935C0.35026 315.923 0.352329 315.91 0.353105 315.896C0.375109 315.584 0.389241 315.302 0.397863 315.123C0.403036 315.015 0.406781 314.963 0.408825 314.924C0.409762 314.912 0.491552 314.105 0.361326 313.153C0.348452 313.059 0.327827 312.932 0.299212 312.779Z" fill="white"/>
<path d="M363.103 68.5364C360.319 58.2994 361.43 45.5453 353.433 22.8027C350.601 48.1982 348.045 74.7378 340.02 98.518C335.604 111.605 337.799 168.21 343.433 178.541L346.141 179.328C353.975 172.751 358.888 158.156 359.694 149.24C362.579 142.448 365.27 135.608 367.764 128.721C373.696 107.509 368.556 88.5994 363.103 68.5364Z" fill="#929D6D"/>
<path d="M356.38 149.912C353.903 141.303 347.966 141.017 337.673 138.073C339.251 150.771 340.72 165.55 343.141 178.115C346.111 170.589 348.151 164.979 352.299 157.734L356.38 149.912Z" fill="#B5B787"/>
<path d="M381.815 163.872L371.472 160.834C363.853 187.519 372.502 212.804 381.23 238.322C382.898 243.201 384.569 248.088 386.13 252.994C387.991 258.841 389.862 269.849 392.717 273.972C398.728 255.339 404.077 236.583 408.76 217.725C408.596 216.696 408.433 215.667 408.27 214.638C408.413 205.88 404.678 198.918 401.004 192.07C397.054 184.707 393.177 177.478 394.273 168.298L395.332 158.708C389.21 158.419 387.668 166.816 381.815 163.872Z" fill="#929D6D"/>
<path d="M393.055 -0.0791016C393.341 -0.0283723 393.635 -0.000976562 393.936 -0.000976562C394.153 -0.000981878 394.367 -0.0174167 394.576 -0.0449219C394.696 -0.0363901 394.816 -0.0302775 394.938 -0.0302734C395.083 -0.0302734 395.227 -0.0386218 395.369 -0.0507812C395.544 -0.0319308 395.721 -0.0205191 395.901 -0.0205078C396.094 -0.0205078 396.286 -0.0332333 396.474 -0.0546875C397.002 0.494469 397.52 1.22511 398.003 2.17578C398.169 2.50096 398.146 2.87539 397.959 3.29297C397.974 3.32489 397.989 3.35669 398.003 3.38867C397.967 3.40099 397.931 3.41176 397.896 3.42383C395.031 8.95928 364.779 21.5039 356.563 24.2773L358.063 25.4688C357.943 25.462 357.824 25.4526 357.706 25.4453C357.933 25.6791 358.063 25.9049 358.063 26.1172C364.609 37.5097 396.401 61.6003 407.452 72.1016L404.546 74.4111C399.196 69.7233 395.218 66.1875 389.324 61.9473L387.518 62.3086L386.923 68.3545L381.53 67.9209C383.152 86.7003 391.638 115.373 399.454 133.046C390.261 143.153 391.703 156.1 395.357 167.762L394.349 168.409C388.298 168.12 388.744 167.766 382.959 164.821L372.737 161.782L372.309 161.09C375.096 153.965 377.49 138.655 379.923 132.009H380.636L382.699 123.878C383.242 121.747 383.656 119.597 383.942 117.436C390.373 72.0358 357.127 33.7407 323.745 -0.0146484C323.884 -0.00306345 324.024 0.0048722 324.166 0.00488281C324.262 0.00488281 324.356 0.000138479 324.45 -0.00683594C324.563 0.000796072 324.677 0.00683471 324.792 0.00683594C324.947 0.00683594 325.1 -0.00187006 325.251 -0.015625C325.277 -0.0164148 325.302 -0.0178542 325.327 -0.0185547C325.516 0.00297968 325.707 0.015625 325.902 0.015625C325.94 0.0156238 325.979 0.0126017 326.018 0.0117188L348.657 17.9971C352.833 12.9083 365.23 6.05553 377.015 0.00292969C377.055 0.00390329 377.096 0.00585854 377.137 0.00585938C377.295 0.00585938 377.452 -0.00220041 377.607 -0.0166016C377.773 0.000688097 377.942 0.0107422 378.114 0.0107422C378.244 0.0107377 378.372 0.00305225 378.499 -0.0078125C378.659 0.00751821 378.82 0.0165978 378.984 0.0166016C379.172 0.0166016 379.359 0.00378371 379.542 -0.0166016C379.552 -0.0170826 379.561 -0.01609 379.571 -0.0166016C379.681 -0.00931564 379.792 -0.00390734 379.905 -0.00390625C380 -0.00390625 380.095 -0.00836761 380.19 -0.0136719C380.303 -0.00513582 380.418 0.00097371 380.533 0.000976562C380.647 0.000976562 380.759 -0.005725 380.87 -0.0136719C381.031 0.00191137 381.194 0.0107372 381.359 0.0107422C381.382 0.0107422 381.405 0.0091006 381.428 0.00878906C381.5 0.0122885 381.573 0.0166016 381.646 0.0166016C381.812 0.0166003 381.977 0.0071019 382.139 -0.00878906C382.22 -0.00327402 382.301 0.00115841 382.383 0.00292969C382.518 0.0139018 382.655 0.0214844 382.793 0.0214844C382.955 0.021477 383.116 0.0121612 383.274 -0.00292969C383.366 0.00231227 383.459 0.00585938 383.553 0.00585938C383.707 0.00585369 383.859 -0.00197421 384.01 -0.015625C384.075 -0.0129224 384.141 -0.0107422 384.207 -0.0107422C384.453 -0.0107563 384.693 -0.0298729 384.929 -0.0644531C385.222 -0.0108864 385.525 0.0185547 385.833 0.0185547C385.987 0.0185467 386.138 0.0100668 386.288 -0.00390625C386.409 0.00474821 386.53 0.0107422 386.653 0.0107422C386.78 0.0107379 386.907 0.00398068 387.032 -0.00585938C387.202 0.0115046 387.374 0.0214844 387.548 0.0214844C387.659 0.0214842 387.769 0.0159046 387.878 0.00878906C387.942 0.0114268 388.007 0.0165995 388.072 0.0166016C388.271 0.0166016 388.468 0.0022301 388.661 -0.0205078C388.754 -0.0152515 388.846 -0.0107492 388.94 -0.0107422C388.992 -0.0107422 389.045 -0.0129783 389.097 -0.0146484C389.283 0.00629035 389.472 0.0185547 389.663 0.0185547C389.864 0.0185401 390.061 0.00533578 390.255 -0.0175781C390.335 -0.0135782 390.415 -0.0107422 390.496 -0.0107422C390.622 -0.0107448 390.746 -0.0170918 390.868 -0.0263672C390.961 -0.016442 391.054 -0.00771305 391.149 -0.00292969L391.406 0.00390625C391.58 0.00390625 391.751 -0.00626537 391.919 -0.0234375C391.939 -0.0221884 391.958 -0.0185742 391.978 -0.0175781L392.236 -0.0107422C392.515 -0.0107422 392.788 -0.0351274 393.055 -0.0791016ZM372.309 161.09C372.215 161.33 372.121 161.561 372.027 161.782V160.632L372.309 161.09ZM318.914 -5.62891C318.908 -5.52525 318.904 -5.4207 318.904 -5.31543C318.904 -5.16333 318.912 -5.0129 318.925 -4.86426C317.688 -6.10214 316.454 -7.33473 315.224 -8.56055L318.914 -5.62891Z" fill="#929D6D"/>
<path d="M381.57 163.555C395.157 156.937 387.208 133.229 382.33 123.514L379.246 131.368C376.731 138.108 374.255 153.928 371.346 160.574L381.57 163.555Z" fill="#C8C597"/>
<path d="M415.329 79.6486C415.309 81.3069 415.288 82.9492 415.345 84.6175C418.435 87.3244 421.652 90.255 424.819 92.8757C424.239 96.1898 423.603 99.3387 422.986 102.398C420.54 114.515 418.375 125.235 421.119 139.287L438.331 133.05C433.701 117.37 429.825 104.916 423.569 89.4273L439.384 104.553L454.895 116.242L457.399 116.881L444.699 103.421L447.161 101.94L447.927 98.6583L449.99 98.0317C445.018 89.905 442.325 83.2177 432.418 79.4921C430.105 79.0665 428.323 78.6543 426.836 78.3101C422.467 77.299 420.637 76.8757 415.344 78.4271C415.34 78.8357 415.335 79.2427 415.329 79.6486Z" fill="#929D6D"/>
<path d="M415.292 79.8942C415.272 81.4933 415.252 83.077 415.308 84.6859C418.335 87.2962 421.56 90.0456 424.661 92.5728L422.629 86.3955C427.784 88.8164 430.312 91.2557 432.401 93.2713C435.712 96.4656 437.919 98.5958 447.726 97.9015L449.449 97.1318C444.578 89.2949 442.238 83.0116 432.535 79.4189C430.269 79.0085 428.524 78.611 427.067 78.2791C422.787 77.3041 420.492 76.5156 415.308 78.0117C415.304 78.4057 415.298 79.5027 415.292 79.8942Z" fill="url(#paint6_linear_562_3687)"/>
<path d="M416.763 64.2593C413.047 67.4072 409.613 70.3157 406.398 71.9584L403.502 74.2771L415.403 84.6845C415.346 82.985 415.367 81.312 415.387 79.6227C415.393 79.2091 415.399 78.8567 415.403 78.4406C420.713 76.8601 422.548 77.2292 426.931 78.2591C428.423 78.6098 430.21 79.0297 432.53 79.4632C449.52 76.6094 462.96 65.3359 451.787 52.5334C437.563 46.6404 426.243 56.2289 416.763 64.2593Z" fill="#BEBF8F"/>
<path d="M408.112 152.974L398.651 130.793C389.461 140.883 391.235 154.645 394.887 166.287C390.087 173.504 394.749 184.271 398.651 191.624C402.28 198.462 406.852 204.881 406.71 213.626C406.872 214.653 408.059 217.129 408.222 218.156C413.433 200.536 411.891 170.992 408.112 152.974Z" fill="#929D6D"/>
<path d="M483.984 111.114C483.066 113.167 483.822 112.542 482.389 113.384C499.633 120.09 519.572 104.578 530.358 95.641C524.122 91.8394 520.094 89.7256 512.234 91.2514C499.921 93.6413 486.645 91.5883 478.219 99.0196C476.984 100.11 471.801 102.017 469.559 102.599C475.979 105.871 478.471 107.036 483.984 111.114Z" fill="#C8C597"/>
<path d="M522.09 78.7669C498.641 66.6411 477.507 74.2321 460.947 90.333C463.743 90.3784 467.52 90.3034 471.149 90.4486C489.009 91.163 514.629 92.1877 525.02 84.6839L519.708 82.1934L522.09 78.7669Z" fill="#929D6D"/>
<path d="M537.447 88.5796C534.425 83.218 528.88 82.1166 521.358 78.6182L519.002 82.0364L524.257 84.5209C513.977 92.0068 488.628 90.9844 470.958 90.2717C467.367 90.1269 464.093 89.9948 461.328 89.9496C457.347 92.655 452.902 95.1091 448.587 97.4255L447.479 98.5938L446.717 101.959C461.405 105.621 473.451 111.285 483.663 113.806C485.08 112.973 483.929 113.25 484.837 111.219C479.384 107.185 476.919 106.033 470.568 102.797C472.786 102.221 476.739 100.676 477.96 99.5975C486.295 92.2469 499.428 94.2776 511.608 91.9137C519.383 90.4044 523.367 92.4954 529.536 96.2556C534.235 92.8434 534.584 92.9839 537.447 88.5796Z" fill="#929D6D"/>
<path d="M438.224 132.613L421.106 139.3L425.366 153.271C426.839 158.953 427.185 163.986 431.857 168.173L435.477 168.178C445.136 158.26 441.832 144.94 438.692 133.827C438.597 133.492 438.318 132.945 438.224 132.613Z" fill="#929D6D"/>
<path d="M464.547 132.007L462.653 132.495C461.74 140.046 461.877 141.736 458.501 148.663C450.707 181.849 454.547 200.789 470.246 232.692L471.389 235.144L473.898 234.976C493.024 199.861 480.597 165.711 464.547 132.007Z" fill="#B5B787"/>
<path d="M458.418 147.781C450.789 181.325 454.548 200.469 469.916 232.717C471.783 212.783 469.434 165.486 458.418 147.781Z" fill="#929D6D"/>
<path d="M570.578 190.599C564.022 172.439 533.713 131.418 504.167 142.313C505.886 142.381 507.357 142.378 508.671 142.375C512.64 142.369 515.17 142.364 518.738 144.302C518.058 145.709 517.431 146.91 516.887 147.952C513.377 154.675 513.309 154.807 524.08 161.381L525.236 164.64C524.252 164.255 523.31 163.863 522.392 163.482C518.133 161.71 514.414 160.163 509.542 160.611C505.043 164.129 506.334 164.123 504.853 169.934C521.303 188.043 535.877 192.556 563.953 192.033L568.827 192.676L570.578 190.599Z" fill="#929D6D"/>
<path d="M509.778 159.993C505.292 163.512 506.579 163.505 505.103 169.318C521.504 187.432 536.037 191.945 564.031 191.423C558.18 187.883 529.834 168.232 525.427 164.023C524.445 163.638 523.505 163.246 522.59 162.864C518.344 161.092 514.636 159.545 509.778 159.993Z" fill="#929D6D"/>
<path d="M454.593 115.912C458.368 121.854 460.487 125.818 463.477 132.042L465.345 131.552L468.014 129.766C487.316 141.668 495.611 152.55 505.599 169.622C507.058 163.814 505.786 163.821 510.218 160.305C515.019 159.857 518.683 161.403 522.879 163.174C523.783 163.555 524.712 163.947 525.681 164.331L524.541 161.074C513.93 154.505 513.997 154.374 517.455 147.655C517.991 146.614 518.608 145.414 519.279 144.008C515.763 142.07 513.271 142.076 509.36 142.082C508.066 142.085 506.616 142.087 504.923 142.02L496.416 143.505C484.869 141.751 464.191 122.315 455.675 115.02L454.593 115.912Z" fill="#B5B787"/>
<path d="M875.322 -50H874.104C879.025 -8.91982 907.648 38.5147 954.308 65.2695C981.03 80.5849 1012.05 87.9323 1044.3 96.007C1128.44 116.441 1174.64 175.337 1200.11 230.166C1239.2 314.354 1251.34 410.516 1344.97 477.75C1366.22 493.004 1406.59 510.17 1438.43 510.581L1440 509.927L1439.69 509.062C1426.86 506.326 1415.89 506.699 1401.96 502.449C1306.12 473.223 1263.03 387.721 1238.57 324.189C1205.89 239.294 1179.79 128.591 1042.75 93.6385C1027.24 89.7377 1010.64 85.6119 995.958 81.1376C927.823 60.3782 891.695 12.4638 879.031 -35.4384C877.868 -39.8477 877.119 -45.9577 875.322 -50Z" fill="#F7E0C3"/>
<path d="M-5.6062 17.9492L-6.10593 17.9646L-5.93146 28.6318L-5.43173 28.6165L-4.932 28.6011L-5.10647 17.9339L-5.6062 17.9492ZM-5.4395 28.2359L-5.93919 28.2534L-5.83763 33.1323L-5.33794 33.1148L-4.83825 33.0972L-4.93981 28.2183L-5.4395 28.2359ZM-5.33826 33.0534L-5.83795 33.0706L1.37932 392.898L1.87902 392.881L2.37871 392.864L-4.83856 33.0362L-5.33826 33.0534Z" fill="white"/>
<defs>
<linearGradient id="paint0_linear_562_3687" x1="-139.516" y1="188.575" x2="-102.66" y2="189.707" gradientUnits="userSpaceOnUse">
<stop stop-color="#4E5D3B"/>
<stop offset="1" stop-color="#6F8056"/>
</linearGradient>
<linearGradient id="paint1_linear_562_3687" x1="64.0523" y1="40.6413" x2="91.0068" y2="53.7692" gradientUnits="userSpaceOnUse">
<stop stop-color="#6F7A50"/>
<stop offset="1" stop-color="#82905F"/>
</linearGradient>
<linearGradient id="paint2_linear_562_3687" x1="25.7221" y1="457.466" x2="93.1952" y2="459.046" gradientUnits="userSpaceOnUse">
<stop stop-color="#859061"/>
<stop offset="1" stop-color="#A9B280"/>
</linearGradient>
<linearGradient id="paint3_linear_562_3687" x1="54.8425" y1="332.038" x2="91.7525" y2="313.349" gradientUnits="userSpaceOnUse">
<stop stop-color="#7D885B"/>
<stop offset="1" stop-color="#93A070"/>
</linearGradient>
<linearGradient id="paint4_linear_562_3687" x1="6.91817" y1="249.699" x2="-27.825" y2="280.392" gradientUnits="userSpaceOnUse">
<stop stop-color="#7B885A"/>
<stop offset="1" stop-color="#9FA975"/>
</linearGradient>
<linearGradient id="paint5_linear_562_3687" x1="59.7377" y1="507.58" x2="11.6354" y2="524.19" gradientUnits="userSpaceOnUse">
<stop stop-color="#B1B987"/>
<stop offset="1" stop-color="#E0D9AC"/>
</linearGradient>
<linearGradient id="paint6_linear_562_3687" x1="422.993" y1="91.2973" x2="439.484" y2="84.9203" gradientUnits="userSpaceOnUse">
<stop stop-color="#DECFA3"/>
<stop offset="1" stop-color="#FFEFDA"/>
</linearGradient>
</defs>
</svg>
